%TF.GenerationSoftware,Altium Limited,Altium Designer,20.1.8 (145)*%
G04 Layer_Color=255*
%FSLAX45Y45*%
%MOMM*%
%TF.SameCoordinates,C5ED230C-B98B-42D8-9333-440794D2D960*%
%TF.FilePolarity,Positive*%
%TF.FileFunction,Pads,Top*%
%TF.Part,Single*%
G01*
G75*
%TA.AperFunction,ConnectorPad*%
%ADD10R,1.20500X0.60000*%
%ADD11R,1.20500X0.30000*%
%TA.AperFunction,SMDPad,CuDef*%
%ADD12C,1.00000*%
G04:AMPARAMS|DCode=13|XSize=2.1mm|YSize=1mm|CornerRadius=0.05mm|HoleSize=0mm|Usage=FLASHONLY|Rotation=270.000|XOffset=0mm|YOffset=0mm|HoleType=Round|Shape=RoundedRectangle|*
%AMROUNDEDRECTD13*
21,1,2.10000,0.90000,0,0,270.0*
21,1,2.00000,1.00000,0,0,270.0*
1,1,0.10000,-0.45000,-1.00000*
1,1,0.10000,-0.45000,1.00000*
1,1,0.10000,0.45000,1.00000*
1,1,0.10000,0.45000,-1.00000*
%
%ADD13ROUNDEDRECTD13*%
G04:AMPARAMS|DCode=14|XSize=1.275mm|YSize=0.9mm|CornerRadius=0.045mm|HoleSize=0mm|Usage=FLASHONLY|Rotation=270.000|XOffset=0mm|YOffset=0mm|HoleType=Round|Shape=RoundedRectangle|*
%AMROUNDEDRECTD14*
21,1,1.27500,0.81000,0,0,270.0*
21,1,1.18500,0.90000,0,0,270.0*
1,1,0.09000,-0.40500,-0.59250*
1,1,0.09000,-0.40500,0.59250*
1,1,0.09000,0.40500,0.59250*
1,1,0.09000,0.40500,-0.59250*
%
%ADD14ROUNDEDRECTD14*%
G04:AMPARAMS|DCode=15|XSize=0.85mm|YSize=0.8mm|CornerRadius=0.04mm|HoleSize=0mm|Usage=FLASHONLY|Rotation=180.000|XOffset=0mm|YOffset=0mm|HoleType=Round|Shape=RoundedRectangle|*
%AMROUNDEDRECTD15*
21,1,0.85000,0.72000,0,0,180.0*
21,1,0.77000,0.80000,0,0,180.0*
1,1,0.08000,-0.38500,0.36000*
1,1,0.08000,0.38500,0.36000*
1,1,0.08000,0.38500,-0.36000*
1,1,0.08000,-0.38500,-0.36000*
%
%ADD15ROUNDEDRECTD15*%
G04:AMPARAMS|DCode=16|XSize=0.85mm|YSize=0.8mm|CornerRadius=0.048mm|HoleSize=0mm|Usage=FLASHONLY|Rotation=180.000|XOffset=0mm|YOffset=0mm|HoleType=Round|Shape=RoundedRectangle|*
%AMROUNDEDRECTD16*
21,1,0.85000,0.70400,0,0,180.0*
21,1,0.75400,0.80000,0,0,180.0*
1,1,0.09600,-0.37700,0.35200*
1,1,0.09600,0.37700,0.35200*
1,1,0.09600,0.37700,-0.35200*
1,1,0.09600,-0.37700,-0.35200*
%
%ADD16ROUNDEDRECTD16*%
%ADD17O,0.25000X1.40000*%
%ADD18O,1.40000X0.25000*%
G04:AMPARAMS|DCode=19|XSize=1.65mm|YSize=0.8mm|CornerRadius=0.04mm|HoleSize=0mm|Usage=FLASHONLY|Rotation=0.000|XOffset=0mm|YOffset=0mm|HoleType=Round|Shape=RoundedRectangle|*
%AMROUNDEDRECTD19*
21,1,1.65000,0.72000,0,0,0.0*
21,1,1.57000,0.80000,0,0,0.0*
1,1,0.08000,0.78500,-0.36000*
1,1,0.08000,-0.78500,-0.36000*
1,1,0.08000,-0.78500,0.36000*
1,1,0.08000,0.78500,0.36000*
%
%ADD19ROUNDEDRECTD19*%
G04:AMPARAMS|DCode=20|XSize=1.275mm|YSize=0.9mm|CornerRadius=0.045mm|HoleSize=0mm|Usage=FLASHONLY|Rotation=0.000|XOffset=0mm|YOffset=0mm|HoleType=Round|Shape=RoundedRectangle|*
%AMROUNDEDRECTD20*
21,1,1.27500,0.81000,0,0,0.0*
21,1,1.18500,0.90000,0,0,0.0*
1,1,0.09000,0.59250,-0.40500*
1,1,0.09000,-0.59250,-0.40500*
1,1,0.09000,-0.59250,0.40500*
1,1,0.09000,0.59250,0.40500*
%
%ADD20ROUNDEDRECTD20*%
%ADD21R,1.00000X1.20000*%
%TA.AperFunction,ConnectorPad*%
%ADD22R,1.00000X0.45000*%
%TA.AperFunction,BGAPad,CuDef*%
%ADD23R,0.90000X0.90000*%
%TA.AperFunction,ConnectorPad*%
%ADD24R,1.50000X0.90000*%
%ADD25R,0.90000X1.50000*%
%TA.AperFunction,SMDPad,CuDef*%
%ADD26R,0.60000X1.00000*%
%ADD27O,0.60000X1.45000*%
%ADD28R,2.15000X3.25000*%
%ADD29R,2.15000X1.00000*%
G04:AMPARAMS|DCode=30|XSize=0.3mm|YSize=0.4mm|CornerRadius=0.0015mm|HoleSize=0mm|Usage=FLASHONLY|Rotation=0.000|XOffset=0mm|YOffset=0mm|HoleType=Round|Shape=RoundedRectangle|*
%AMROUNDEDRECTD30*
21,1,0.30000,0.39700,0,0,0.0*
21,1,0.29700,0.40000,0,0,0.0*
1,1,0.00300,0.14850,-0.19850*
1,1,0.00300,-0.14850,-0.19850*
1,1,0.00300,-0.14850,0.19850*
1,1,0.00300,0.14850,0.19850*
%
%ADD30ROUNDEDRECTD30*%
G04:AMPARAMS|DCode=31|XSize=0.85mm|YSize=0.8mm|CornerRadius=0.048mm|HoleSize=0mm|Usage=FLASHONLY|Rotation=270.000|XOffset=0mm|YOffset=0mm|HoleType=Round|Shape=RoundedRectangle|*
%AMROUNDEDRECTD31*
21,1,0.85000,0.70400,0,0,270.0*
21,1,0.75400,0.80000,0,0,270.0*
1,1,0.09600,-0.35200,-0.37700*
1,1,0.09600,-0.35200,0.37700*
1,1,0.09600,0.35200,0.37700*
1,1,0.09600,0.35200,-0.37700*
%
%ADD31ROUNDEDRECTD31*%
G04:AMPARAMS|DCode=32|XSize=2.35mm|YSize=2.1mm|CornerRadius=0.0105mm|HoleSize=0mm|Usage=FLASHONLY|Rotation=0.000|XOffset=0mm|YOffset=0mm|HoleType=Round|Shape=RoundedRectangle|*
%AMROUNDEDRECTD32*
21,1,2.35000,2.07900,0,0,0.0*
21,1,2.32900,2.10000,0,0,0.0*
1,1,0.02100,1.16450,-1.03950*
1,1,0.02100,-1.16450,-1.03950*
1,1,0.02100,-1.16450,1.03950*
1,1,0.02100,1.16450,1.03950*
%
%ADD32ROUNDEDRECTD32*%
G04:AMPARAMS|DCode=33|XSize=1.65mm|YSize=0.8mm|CornerRadius=0.04mm|HoleSize=0mm|Usage=FLASHONLY|Rotation=90.000|XOffset=0mm|YOffset=0mm|HoleType=Round|Shape=RoundedRectangle|*
%AMROUNDEDRECTD33*
21,1,1.65000,0.72000,0,0,90.0*
21,1,1.57000,0.80000,0,0,90.0*
1,1,0.08000,0.36000,0.78500*
1,1,0.08000,0.36000,-0.78500*
1,1,0.08000,-0.36000,-0.78500*
1,1,0.08000,-0.36000,0.78500*
%
%ADD33ROUNDEDRECTD33*%
G04:AMPARAMS|DCode=34|XSize=0.848mm|YSize=0.848mm|CornerRadius=0.0424mm|HoleSize=0mm|Usage=FLASHONLY|Rotation=90.000|XOffset=0mm|YOffset=0mm|HoleType=Round|Shape=RoundedRectangle|*
%AMROUNDEDRECTD34*
21,1,0.84800,0.76320,0,0,90.0*
21,1,0.76320,0.84800,0,0,90.0*
1,1,0.08480,0.38160,0.38160*
1,1,0.08480,0.38160,-0.38160*
1,1,0.08480,-0.38160,-0.38160*
1,1,0.08480,-0.38160,0.38160*
%
%ADD34ROUNDEDRECTD34*%
G04:AMPARAMS|DCode=35|XSize=0.848mm|YSize=0.848mm|CornerRadius=0.0424mm|HoleSize=0mm|Usage=FLASHONLY|Rotation=0.000|XOffset=0mm|YOffset=0mm|HoleType=Round|Shape=RoundedRectangle|*
%AMROUNDEDRECTD35*
21,1,0.84800,0.76320,0,0,0.0*
21,1,0.76320,0.84800,0,0,0.0*
1,1,0.08480,0.38160,-0.38160*
1,1,0.08480,-0.38160,-0.38160*
1,1,0.08480,-0.38160,0.38160*
1,1,0.08480,0.38160,0.38160*
%
%ADD35ROUNDEDRECTD35*%
%TA.AperFunction,ComponentPad*%
%ADD42C,0.65000*%
%ADD43O,2.10000X1.00000*%
%ADD44O,1.80000X1.00000*%
%ADD45C,1.50000*%
%ADD46C,0.56000*%
G04:AMPARAMS|DCode=47|XSize=1.5mm|YSize=1.45mm|CornerRadius=0.18125mm|HoleSize=0mm|Usage=FLASHONLY|Rotation=90.000|XOffset=0mm|YOffset=0mm|HoleType=Round|Shape=RoundedRectangle|*
%AMROUNDEDRECTD47*
21,1,1.50000,1.08750,0,0,90.0*
21,1,1.13750,1.45000,0,0,90.0*
1,1,0.36250,0.54375,0.56875*
1,1,0.36250,0.54375,-0.56875*
1,1,0.36250,-0.54375,-0.56875*
1,1,0.36250,-0.54375,0.56875*
%
%ADD47ROUNDEDRECTD47*%
%ADD48O,1.45000X1.50000*%
G04:AMPARAMS|DCode=49|XSize=2.25mm|YSize=3.75mm|CornerRadius=1.125mm|HoleSize=0mm|Usage=FLASHONLY|Rotation=90.000|XOffset=0mm|YOffset=0mm|HoleType=Round|Shape=RoundedRectangle|*
%AMROUNDEDRECTD49*
21,1,2.25000,1.50000,0,0,90.0*
21,1,0.00000,3.75000,0,0,90.0*
1,1,2.25000,0.75000,0.00000*
1,1,2.25000,0.75000,0.00000*
1,1,2.25000,-0.75000,0.00000*
1,1,2.25000,-0.75000,0.00000*
%
%ADD49ROUNDEDRECTD49*%
%ADD50O,3.75000X2.25000*%
%ADD51O,1.00000X1.70000*%
%ADD52C,1.52400*%
D10*
X751502Y436293D02*
D03*
Y516278D02*
D03*
Y996287D02*
D03*
Y1076272D02*
D03*
D11*
Y581276D02*
D03*
Y631289D02*
D03*
Y681276D02*
D03*
Y731289D02*
D03*
Y781276D02*
D03*
Y831289D02*
D03*
Y881276D02*
D03*
Y931288D02*
D03*
D12*
X4223165Y3981836D02*
D03*
X3682581Y3686661D02*
D03*
X4037477Y3865023D02*
D03*
X3070860Y3179260D02*
D03*
X3200400Y3305561D02*
D03*
X3322320Y3422539D02*
D03*
X3858539Y3750447D02*
D03*
X2822500Y5509220D02*
D03*
X2981309Y5360647D02*
D03*
X3117380Y5442606D02*
D03*
X3220951Y5582616D02*
D03*
X3362471Y5643400D02*
D03*
X3583139Y5638466D02*
D03*
X3221498Y1651420D02*
D03*
X1555066Y436293D02*
D03*
X2788001Y2302861D02*
D03*
D13*
X2236680Y2533280D02*
D03*
Y1693280D02*
D03*
X1786680Y2533280D02*
D03*
Y1693280D02*
D03*
D14*
X4793161Y2653780D02*
D03*
X4968401D02*
D03*
X4860621Y2478700D02*
D03*
X5035861D02*
D03*
X4846021Y2305210D02*
D03*
X5021261D02*
D03*
X895060Y3896480D02*
D03*
X719820D02*
D03*
X3339180Y4280000D02*
D03*
X3514420D02*
D03*
D15*
X1296930Y3612220D02*
D03*
Y3742221D02*
D03*
X1150980Y3612220D02*
D03*
Y3742221D02*
D03*
D16*
X1296930Y3250021D02*
D03*
Y3380021D02*
D03*
X1007280D02*
D03*
Y3250021D02*
D03*
X1150980D02*
D03*
Y3380021D02*
D03*
X3537801Y3244260D02*
D03*
Y3114260D02*
D03*
X2645145Y4057457D02*
D03*
Y4187457D02*
D03*
X977900Y1070180D02*
D03*
Y940180D02*
D03*
X3547961Y1979340D02*
D03*
Y2109340D02*
D03*
X3520658Y4448460D02*
D03*
Y4578460D02*
D03*
D17*
X4386781Y2083700D02*
D03*
X4336781D02*
D03*
X4286781D02*
D03*
X4236781D02*
D03*
X4186781D02*
D03*
X4136781D02*
D03*
X4086781D02*
D03*
X4036781D02*
D03*
X3986781D02*
D03*
X3936781D02*
D03*
X3886781D02*
D03*
X3836781D02*
D03*
Y2923700D02*
D03*
X3886781D02*
D03*
X3936781D02*
D03*
X3986781D02*
D03*
X4036781D02*
D03*
X4086781D02*
D03*
X4136781D02*
D03*
X4186781D02*
D03*
X4236781D02*
D03*
X4286781D02*
D03*
X4336781D02*
D03*
X4386781D02*
D03*
D18*
X3691781Y2228700D02*
D03*
Y2278700D02*
D03*
Y2328700D02*
D03*
Y2378700D02*
D03*
Y2428700D02*
D03*
Y2478700D02*
D03*
Y2528700D02*
D03*
Y2578700D02*
D03*
Y2628700D02*
D03*
Y2678700D02*
D03*
Y2728700D02*
D03*
Y2778700D02*
D03*
X4531781D02*
D03*
Y2728700D02*
D03*
Y2678700D02*
D03*
Y2628700D02*
D03*
Y2578700D02*
D03*
Y2528700D02*
D03*
Y2478700D02*
D03*
Y2428700D02*
D03*
Y2378700D02*
D03*
Y2328700D02*
D03*
Y2278700D02*
D03*
Y2228700D02*
D03*
D19*
X4922101Y3231559D02*
D03*
Y3516559D02*
D03*
X3583521Y1793920D02*
D03*
Y1508920D02*
D03*
X3045763Y2428700D02*
D03*
Y2143700D02*
D03*
D20*
X4696041Y3231559D02*
D03*
Y3406799D02*
D03*
X4492841Y3231559D02*
D03*
Y3406799D02*
D03*
X3946741Y3193460D02*
D03*
Y3368700D02*
D03*
X3715601Y3193460D02*
D03*
Y3368700D02*
D03*
X2788002Y731201D02*
D03*
Y906441D02*
D03*
X2788001Y1438100D02*
D03*
Y1262860D02*
D03*
X3283125Y2428700D02*
D03*
Y2253460D02*
D03*
X3836781Y1793920D02*
D03*
Y1618680D02*
D03*
X4074881Y1753920D02*
D03*
Y1578680D02*
D03*
X4463001Y1718840D02*
D03*
Y1543600D02*
D03*
X4267261Y1693920D02*
D03*
Y1518680D02*
D03*
X2788001Y271200D02*
D03*
Y446440D02*
D03*
D21*
X4302640Y3231559D02*
D03*
X4172640D02*
D03*
X4302640Y3401559D02*
D03*
X4172640D02*
D03*
D22*
X3733800Y4348460D02*
D03*
Y4418460D02*
D03*
Y4488460D02*
D03*
Y4558460D02*
D03*
Y4628460D02*
D03*
Y4698460D02*
D03*
Y4768460D02*
D03*
Y4838460D02*
D03*
Y4908460D02*
D03*
Y4978460D02*
D03*
Y5048460D02*
D03*
Y5118460D02*
D03*
D23*
X1382280Y4774720D02*
D03*
Y4914720D02*
D03*
Y5054720D02*
D03*
X1522280Y4914720D02*
D03*
Y4774720D02*
D03*
Y5054720D02*
D03*
X1662280Y4774720D02*
D03*
Y4914720D02*
D03*
Y5054720D02*
D03*
D24*
X2526280Y5763220D02*
D03*
Y5636220D02*
D03*
Y5509220D02*
D03*
Y5382220D02*
D03*
Y5255220D02*
D03*
Y5128220D02*
D03*
Y5001220D02*
D03*
Y4874220D02*
D03*
Y4747220D02*
D03*
Y4620220D02*
D03*
Y4493220D02*
D03*
Y4366220D02*
D03*
D25*
X750280Y5939720D02*
D03*
X877280D02*
D03*
X1004280D02*
D03*
X1131280D02*
D03*
X1258280D02*
D03*
X1385280D02*
D03*
X1512280D02*
D03*
X1639280D02*
D03*
X1766280D02*
D03*
X1893280D02*
D03*
X2020280D02*
D03*
X2147280D02*
D03*
X2274280D02*
D03*
X2401280D02*
D03*
Y4189720D02*
D03*
X2274280D02*
D03*
X2147280D02*
D03*
X2020280D02*
D03*
X1893280D02*
D03*
X1766280D02*
D03*
X1639280D02*
D03*
X1512280D02*
D03*
X1385280D02*
D03*
X1258280D02*
D03*
X1131280D02*
D03*
X1004280D02*
D03*
X877280D02*
D03*
X750280D02*
D03*
D26*
X1183020Y436293D02*
D03*
X1049020D02*
D03*
D27*
X4615420Y989582D02*
D03*
X4488420D02*
D03*
X4361420D02*
D03*
X4234420D02*
D03*
X4107420D02*
D03*
X3980420D02*
D03*
X3853420D02*
D03*
X3726420D02*
D03*
X4615420Y444582D02*
D03*
X4488420D02*
D03*
X4361420D02*
D03*
X4234420D02*
D03*
X4107420D02*
D03*
X3980420D02*
D03*
X3853420D02*
D03*
X3726420D02*
D03*
D28*
X1894121Y501200D02*
D03*
Y1208100D02*
D03*
D29*
X2479121Y731200D02*
D03*
Y501200D02*
D03*
Y271200D02*
D03*
Y1438100D02*
D03*
Y1208100D02*
D03*
Y978100D02*
D03*
D30*
X1191260Y636289D02*
D03*
Y731289D02*
D03*
Y917240D02*
D03*
Y822240D02*
D03*
X1371600Y341293D02*
D03*
Y436293D02*
D03*
D31*
X1552400Y614296D02*
D03*
X1422400D02*
D03*
X2696370Y5763220D02*
D03*
X2826370D02*
D03*
X360000Y3739200D02*
D03*
X230000D02*
D03*
D32*
X3213100Y347980D02*
D03*
Y932980D02*
D03*
D33*
X889980Y3662520D02*
D03*
X604980D02*
D03*
D34*
X3840420Y1164222D02*
D03*
X3970420D02*
D03*
X4364420D02*
D03*
X4234420D02*
D03*
X4364420Y266921D02*
D03*
X4234420D02*
D03*
D35*
X3590020Y1117944D02*
D03*
Y987943D02*
D03*
D42*
X636009Y1046274D02*
D03*
Y467281D02*
D03*
D43*
X686001Y1188286D02*
D03*
Y324279D02*
D03*
D44*
X267993Y1188286D02*
D03*
Y324279D02*
D03*
D45*
X2538094Y3433784D02*
D03*
Y3179784D02*
D03*
X2794000Y3433784D02*
D03*
Y3179784D02*
D03*
Y2671784D02*
D03*
Y2925784D02*
D03*
X2538094Y2671784D02*
D03*
X4945380Y436880D02*
D03*
X5199380D02*
D03*
X4945382Y1084580D02*
D03*
X5199382D02*
D03*
X3746500Y5913500D02*
D03*
X3492500D02*
D03*
X4780309Y1576652D02*
D03*
Y1830652D02*
D03*
X2538094Y2925784D02*
D03*
D46*
X1452280Y5054720D02*
D03*
X1592280D02*
D03*
Y4774720D02*
D03*
X1452280D02*
D03*
X1662280Y4704720D02*
D03*
X1522280D02*
D03*
X1382280D02*
D03*
X1732280Y5054720D02*
D03*
Y4914720D02*
D03*
Y4774720D02*
D03*
X1382280Y5124720D02*
D03*
X1662280D02*
D03*
X1522280D02*
D03*
X1312280Y5054720D02*
D03*
Y4774720D02*
D03*
Y4914720D02*
D03*
X1662280Y4984720D02*
D03*
Y4844720D02*
D03*
X1522280Y4984720D02*
D03*
Y4844720D02*
D03*
X1382280Y4984720D02*
D03*
Y4844720D02*
D03*
X1592280Y4914720D02*
D03*
X1452280D02*
D03*
D47*
X397000Y2876000D02*
D03*
D48*
Y3130000D02*
D03*
Y3384000D02*
D03*
X143000D02*
D03*
Y3130000D02*
D03*
Y2876000D02*
D03*
D49*
X838200Y1410680D02*
D03*
D50*
Y2485680D02*
D03*
D51*
X138200Y2198180D02*
D03*
Y1698180D02*
D03*
X1588200Y1948180D02*
D03*
Y2198180D02*
D03*
Y1698180D02*
D03*
D52*
X5103001Y6162500D02*
D03*
X4849001D02*
D03*
X4595001D02*
D03*
X4341001D02*
D03*
X4087001D02*
D03*
X3833001D02*
D03*
X3579001D02*
D03*
X3325001D02*
D03*
%TF.MD5,874a2c233d9a12856f712a383a4771cd*%
M02*
