%TF.GenerationSoftware,Altium Limited,Altium Designer,20.1.8 (145)*%
G04 Layer_Color=8388736*
%FSLAX45Y45*%
%MOMM*%
%TF.SameCoordinates,C5ED230C-B98B-42D8-9333-440794D2D960*%
%TF.FilePolarity,Negative*%
%TF.FileFunction,Soldermask,Top*%
%TF.Part,Single*%
G01*
G75*
%TA.AperFunction,SMDPad,CuDef*%
%ADD12C,1.00000*%
%TA.AperFunction,BGAPad,CuDef*%
%ADD23R,0.90000X0.90000*%
%TA.AperFunction,ComponentPad*%
%ADD42C,0.65000*%
%ADD45C,1.50000*%
%ADD54O,2.20002X1.10002*%
%ADD55O,1.90002X1.10002*%
G04:AMPARAMS|DCode=56|XSize=1.6mm|YSize=1.55mm|CornerRadius=0.23125mm|HoleSize=0mm|Usage=FLASHONLY|Rotation=90.000|XOffset=0mm|YOffset=0mm|HoleType=Round|Shape=RoundedRectangle|*
%AMROUNDEDRECTD56*
21,1,1.60000,1.08750,0,0,90.0*
21,1,1.13750,1.55000,0,0,90.0*
1,1,0.46250,0.54375,0.56875*
1,1,0.46250,0.54375,-0.56875*
1,1,0.46250,-0.54375,-0.56875*
1,1,0.46250,-0.54375,0.56875*
%
%ADD56ROUNDEDRECTD56*%
%ADD57O,1.55000X1.60000*%
G04:AMPARAMS|DCode=58|XSize=2.35mm|YSize=3.85mm|CornerRadius=1.175mm|HoleSize=0mm|Usage=FLASHONLY|Rotation=90.000|XOffset=0mm|YOffset=0mm|HoleType=Round|Shape=RoundedRectangle|*
%AMROUNDEDRECTD58*
21,1,2.35000,1.50000,0,0,90.0*
21,1,0.00000,3.85000,0,0,90.0*
1,1,2.35000,0.75000,0.00000*
1,1,2.35000,0.75000,0.00000*
1,1,2.35000,-0.75000,0.00000*
1,1,2.35000,-0.75000,0.00000*
%
%ADD58ROUNDEDRECTD58*%
%ADD59O,3.85000X2.35000*%
%ADD60O,1.10000X1.80000*%
%ADD61C,1.62400*%
%TA.AperFunction,ConnectorPad*%
%ADD70R,1.42500X0.82000*%
%ADD71R,1.42500X0.52000*%
%TA.AperFunction,SMDPad,CuDef*%
G04:AMPARAMS|DCode=72|XSize=2.2mm|YSize=1.1mm|CornerRadius=0.1mm|HoleSize=0mm|Usage=FLASHONLY|Rotation=270.000|XOffset=0mm|YOffset=0mm|HoleType=Round|Shape=RoundedRectangle|*
%AMROUNDEDRECTD72*
21,1,2.20000,0.90000,0,0,270.0*
21,1,2.00000,1.10000,0,0,270.0*
1,1,0.20000,-0.45000,-1.00000*
1,1,0.20000,-0.45000,1.00000*
1,1,0.20000,0.45000,1.00000*
1,1,0.20000,0.45000,-1.00000*
%
%ADD72ROUNDEDRECTD72*%
G04:AMPARAMS|DCode=73|XSize=1.375mm|YSize=1mm|CornerRadius=0.095mm|HoleSize=0mm|Usage=FLASHONLY|Rotation=270.000|XOffset=0mm|YOffset=0mm|HoleType=Round|Shape=RoundedRectangle|*
%AMROUNDEDRECTD73*
21,1,1.37500,0.81000,0,0,270.0*
21,1,1.18500,1.00000,0,0,270.0*
1,1,0.19000,-0.40500,-0.59250*
1,1,0.19000,-0.40500,0.59250*
1,1,0.19000,0.40500,0.59250*
1,1,0.19000,0.40500,-0.59250*
%
%ADD73ROUNDEDRECTD73*%
G04:AMPARAMS|DCode=74|XSize=0.95mm|YSize=0.9mm|CornerRadius=0.09mm|HoleSize=0mm|Usage=FLASHONLY|Rotation=180.000|XOffset=0mm|YOffset=0mm|HoleType=Round|Shape=RoundedRectangle|*
%AMROUNDEDRECTD74*
21,1,0.95000,0.72000,0,0,180.0*
21,1,0.77000,0.90000,0,0,180.0*
1,1,0.18000,-0.38500,0.36000*
1,1,0.18000,0.38500,0.36000*
1,1,0.18000,0.38500,-0.36000*
1,1,0.18000,-0.38500,-0.36000*
%
%ADD74ROUNDEDRECTD74*%
G04:AMPARAMS|DCode=75|XSize=0.95mm|YSize=0.9mm|CornerRadius=0.098mm|HoleSize=0mm|Usage=FLASHONLY|Rotation=180.000|XOffset=0mm|YOffset=0mm|HoleType=Round|Shape=RoundedRectangle|*
%AMROUNDEDRECTD75*
21,1,0.95000,0.70400,0,0,180.0*
21,1,0.75400,0.90000,0,0,180.0*
1,1,0.19600,-0.37700,0.35200*
1,1,0.19600,0.37700,0.35200*
1,1,0.19600,0.37700,-0.35200*
1,1,0.19600,-0.37700,-0.35200*
%
%ADD75ROUNDEDRECTD75*%
%ADD76O,0.35000X1.50000*%
%ADD77O,1.50000X0.35000*%
G04:AMPARAMS|DCode=78|XSize=1.75mm|YSize=0.9mm|CornerRadius=0.09mm|HoleSize=0mm|Usage=FLASHONLY|Rotation=0.000|XOffset=0mm|YOffset=0mm|HoleType=Round|Shape=RoundedRectangle|*
%AMROUNDEDRECTD78*
21,1,1.75000,0.72000,0,0,0.0*
21,1,1.57000,0.90000,0,0,0.0*
1,1,0.18000,0.78500,-0.36000*
1,1,0.18000,-0.78500,-0.36000*
1,1,0.18000,-0.78500,0.36000*
1,1,0.18000,0.78500,0.36000*
%
%ADD78ROUNDEDRECTD78*%
G04:AMPARAMS|DCode=79|XSize=1.375mm|YSize=1mm|CornerRadius=0.095mm|HoleSize=0mm|Usage=FLASHONLY|Rotation=0.000|XOffset=0mm|YOffset=0mm|HoleType=Round|Shape=RoundedRectangle|*
%AMROUNDEDRECTD79*
21,1,1.37500,0.81000,0,0,0.0*
21,1,1.18500,1.00000,0,0,0.0*
1,1,0.19000,0.59250,-0.40500*
1,1,0.19000,-0.59250,-0.40500*
1,1,0.19000,-0.59250,0.40500*
1,1,0.19000,0.59250,0.40500*
%
%ADD79ROUNDEDRECTD79*%
%ADD80R,1.10000X1.30000*%
%TA.AperFunction,ConnectorPad*%
%ADD81R,1.10000X0.55000*%
%ADD82R,1.60000X1.00000*%
%ADD83R,1.00000X1.60000*%
%TA.AperFunction,SMDPad,CuDef*%
%ADD84R,0.70000X1.10000*%
%ADD85O,0.70000X1.55000*%
%ADD86R,2.25000X3.35000*%
%ADD87R,2.25000X1.10000*%
G04:AMPARAMS|DCode=88|XSize=0.4mm|YSize=0.5mm|CornerRadius=0.0515mm|HoleSize=0mm|Usage=FLASHONLY|Rotation=0.000|XOffset=0mm|YOffset=0mm|HoleType=Round|Shape=RoundedRectangle|*
%AMROUNDEDRECTD88*
21,1,0.40000,0.39700,0,0,0.0*
21,1,0.29700,0.50000,0,0,0.0*
1,1,0.10300,0.14850,-0.19850*
1,1,0.10300,-0.14850,-0.19850*
1,1,0.10300,-0.14850,0.19850*
1,1,0.10300,0.14850,0.19850*
%
%ADD88ROUNDEDRECTD88*%
G04:AMPARAMS|DCode=89|XSize=0.95mm|YSize=0.9mm|CornerRadius=0.098mm|HoleSize=0mm|Usage=FLASHONLY|Rotation=270.000|XOffset=0mm|YOffset=0mm|HoleType=Round|Shape=RoundedRectangle|*
%AMROUNDEDRECTD89*
21,1,0.95000,0.70400,0,0,270.0*
21,1,0.75400,0.90000,0,0,270.0*
1,1,0.19600,-0.35200,-0.37700*
1,1,0.19600,-0.35200,0.37700*
1,1,0.19600,0.35200,0.37700*
1,1,0.19600,0.35200,-0.37700*
%
%ADD89ROUNDEDRECTD89*%
G04:AMPARAMS|DCode=90|XSize=2.45mm|YSize=2.2mm|CornerRadius=0.0605mm|HoleSize=0mm|Usage=FLASHONLY|Rotation=0.000|XOffset=0mm|YOffset=0mm|HoleType=Round|Shape=RoundedRectangle|*
%AMROUNDEDRECTD90*
21,1,2.45000,2.07900,0,0,0.0*
21,1,2.32900,2.20000,0,0,0.0*
1,1,0.12100,1.16450,-1.03950*
1,1,0.12100,-1.16450,-1.03950*
1,1,0.12100,-1.16450,1.03950*
1,1,0.12100,1.16450,1.03950*
%
%ADD90ROUNDEDRECTD90*%
G04:AMPARAMS|DCode=91|XSize=1.75mm|YSize=0.9mm|CornerRadius=0.09mm|HoleSize=0mm|Usage=FLASHONLY|Rotation=90.000|XOffset=0mm|YOffset=0mm|HoleType=Round|Shape=RoundedRectangle|*
%AMROUNDEDRECTD91*
21,1,1.75000,0.72000,0,0,90.0*
21,1,1.57000,0.90000,0,0,90.0*
1,1,0.18000,0.36000,0.78500*
1,1,0.18000,0.36000,-0.78500*
1,1,0.18000,-0.36000,-0.78500*
1,1,0.18000,-0.36000,0.78500*
%
%ADD91ROUNDEDRECTD91*%
G04:AMPARAMS|DCode=92|XSize=0.948mm|YSize=0.948mm|CornerRadius=0.0924mm|HoleSize=0mm|Usage=FLASHONLY|Rotation=90.000|XOffset=0mm|YOffset=0mm|HoleType=Round|Shape=RoundedRectangle|*
%AMROUNDEDRECTD92*
21,1,0.94800,0.76320,0,0,90.0*
21,1,0.76320,0.94800,0,0,90.0*
1,1,0.18480,0.38160,0.38160*
1,1,0.18480,0.38160,-0.38160*
1,1,0.18480,-0.38160,-0.38160*
1,1,0.18480,-0.38160,0.38160*
%
%ADD92ROUNDEDRECTD92*%
G04:AMPARAMS|DCode=93|XSize=0.948mm|YSize=0.948mm|CornerRadius=0.0924mm|HoleSize=0mm|Usage=FLASHONLY|Rotation=0.000|XOffset=0mm|YOffset=0mm|HoleType=Round|Shape=RoundedRectangle|*
%AMROUNDEDRECTD93*
21,1,0.94800,0.76320,0,0,0.0*
21,1,0.76320,0.94800,0,0,0.0*
1,1,0.18480,0.38160,-0.38160*
1,1,0.18480,-0.38160,-0.38160*
1,1,0.18480,-0.38160,0.38160*
1,1,0.18480,0.38160,0.38160*
%
%ADD93ROUNDEDRECTD93*%
D12*
X4223165Y3981836D02*
D03*
X3682581Y3686661D02*
D03*
X4037477Y3865023D02*
D03*
X3070860Y3179260D02*
D03*
X3200400Y3305561D02*
D03*
X3322320Y3422539D02*
D03*
X3858539Y3750447D02*
D03*
X2822500Y5509220D02*
D03*
X2981309Y5360647D02*
D03*
X3117380Y5442606D02*
D03*
X3220951Y5582616D02*
D03*
X3362471Y5643400D02*
D03*
X3583139Y5638466D02*
D03*
X3221498Y1651420D02*
D03*
X1555066Y436293D02*
D03*
X2788001Y2302861D02*
D03*
D23*
X1382280Y4774720D02*
D03*
Y4914720D02*
D03*
Y5054720D02*
D03*
X1522280Y4914720D02*
D03*
Y4774720D02*
D03*
Y5054720D02*
D03*
X1662280Y4774720D02*
D03*
Y4914720D02*
D03*
Y5054720D02*
D03*
D42*
X636009Y1046274D02*
D03*
Y467281D02*
D03*
D45*
X2538094Y3433784D02*
D03*
Y3179784D02*
D03*
X2794000Y3433784D02*
D03*
Y3179784D02*
D03*
Y2671784D02*
D03*
Y2925784D02*
D03*
X2538094Y2671784D02*
D03*
X4945380Y436880D02*
D03*
X5199380D02*
D03*
X4945382Y1084580D02*
D03*
X5199382D02*
D03*
X3746500Y5913500D02*
D03*
X3492500D02*
D03*
X4780309Y1576652D02*
D03*
Y1830652D02*
D03*
X2538094Y2925784D02*
D03*
D54*
X686001Y1188286D02*
D03*
Y324279D02*
D03*
D55*
X267993Y1188286D02*
D03*
Y324279D02*
D03*
D56*
X397000Y2876000D02*
D03*
D57*
Y3130000D02*
D03*
Y3384000D02*
D03*
X143000D02*
D03*
Y3130000D02*
D03*
Y2876000D02*
D03*
D58*
X838200Y1410680D02*
D03*
D59*
Y2485680D02*
D03*
D60*
X138200Y2198180D02*
D03*
Y1698180D02*
D03*
X1588200Y1948180D02*
D03*
Y2198180D02*
D03*
Y1698180D02*
D03*
D61*
X5103001Y6162500D02*
D03*
X4849001D02*
D03*
X4595001D02*
D03*
X4341001D02*
D03*
X4087001D02*
D03*
X3833001D02*
D03*
X3579001D02*
D03*
X3325001D02*
D03*
D70*
X751502Y436293D02*
D03*
Y516278D02*
D03*
Y996287D02*
D03*
Y1076272D02*
D03*
D71*
Y581276D02*
D03*
Y631289D02*
D03*
Y681276D02*
D03*
Y731289D02*
D03*
Y781276D02*
D03*
Y831289D02*
D03*
Y881276D02*
D03*
Y931288D02*
D03*
D72*
X2236680Y2533280D02*
D03*
Y1693280D02*
D03*
X1786680Y2533280D02*
D03*
Y1693280D02*
D03*
D73*
X4793161Y2653780D02*
D03*
X4968401D02*
D03*
X4860621Y2478700D02*
D03*
X5035861D02*
D03*
X4846021Y2305210D02*
D03*
X5021261D02*
D03*
X895060Y3896480D02*
D03*
X719820D02*
D03*
X3339180Y4280000D02*
D03*
X3514420D02*
D03*
D74*
X1296930Y3612220D02*
D03*
Y3742221D02*
D03*
X1150980Y3612220D02*
D03*
Y3742221D02*
D03*
D75*
X1296930Y3250021D02*
D03*
Y3380021D02*
D03*
X1007280D02*
D03*
Y3250021D02*
D03*
X1150980D02*
D03*
Y3380021D02*
D03*
X3537801Y3244260D02*
D03*
Y3114260D02*
D03*
X2645145Y4057457D02*
D03*
Y4187457D02*
D03*
X977900Y1070180D02*
D03*
Y940180D02*
D03*
X3547961Y1979340D02*
D03*
Y2109340D02*
D03*
X3520658Y4448460D02*
D03*
Y4578460D02*
D03*
D76*
X4386781Y2083700D02*
D03*
X4336781D02*
D03*
X4286781D02*
D03*
X4236781D02*
D03*
X4186781D02*
D03*
X4136781D02*
D03*
X4086781D02*
D03*
X4036781D02*
D03*
X3986781D02*
D03*
X3936781D02*
D03*
X3886781D02*
D03*
X3836781D02*
D03*
Y2923700D02*
D03*
X3886781D02*
D03*
X3936781D02*
D03*
X3986781D02*
D03*
X4036781D02*
D03*
X4086781D02*
D03*
X4136781D02*
D03*
X4186781D02*
D03*
X4236781D02*
D03*
X4286781D02*
D03*
X4336781D02*
D03*
X4386781D02*
D03*
D77*
X3691781Y2228700D02*
D03*
Y2278700D02*
D03*
Y2328700D02*
D03*
Y2378700D02*
D03*
Y2428700D02*
D03*
Y2478700D02*
D03*
Y2528700D02*
D03*
Y2578700D02*
D03*
Y2628700D02*
D03*
Y2678700D02*
D03*
Y2728700D02*
D03*
Y2778700D02*
D03*
X4531781D02*
D03*
Y2728700D02*
D03*
Y2678700D02*
D03*
Y2628700D02*
D03*
Y2578700D02*
D03*
Y2528700D02*
D03*
Y2478700D02*
D03*
Y2428700D02*
D03*
Y2378700D02*
D03*
Y2328700D02*
D03*
Y2278700D02*
D03*
Y2228700D02*
D03*
D78*
X4922101Y3231559D02*
D03*
Y3516559D02*
D03*
X3583521Y1793920D02*
D03*
Y1508920D02*
D03*
X3045763Y2428700D02*
D03*
Y2143700D02*
D03*
D79*
X4696041Y3231559D02*
D03*
Y3406799D02*
D03*
X4492841Y3231559D02*
D03*
Y3406799D02*
D03*
X3946741Y3193460D02*
D03*
Y3368700D02*
D03*
X3715601Y3193460D02*
D03*
Y3368700D02*
D03*
X2788002Y731201D02*
D03*
Y906441D02*
D03*
X2788001Y1438100D02*
D03*
Y1262860D02*
D03*
X3283125Y2428700D02*
D03*
Y2253460D02*
D03*
X3836781Y1793920D02*
D03*
Y1618680D02*
D03*
X4074881Y1753920D02*
D03*
Y1578680D02*
D03*
X4463001Y1718840D02*
D03*
Y1543600D02*
D03*
X4267261Y1693920D02*
D03*
Y1518680D02*
D03*
X2788001Y271200D02*
D03*
Y446440D02*
D03*
D80*
X4302640Y3231559D02*
D03*
X4172640D02*
D03*
X4302640Y3401559D02*
D03*
X4172640D02*
D03*
D81*
X3733800Y4348460D02*
D03*
Y4418460D02*
D03*
Y4488460D02*
D03*
Y4558460D02*
D03*
Y4628460D02*
D03*
Y4698460D02*
D03*
Y4768460D02*
D03*
Y4838460D02*
D03*
Y4908460D02*
D03*
Y4978460D02*
D03*
Y5048460D02*
D03*
Y5118460D02*
D03*
D82*
X2526280Y5763220D02*
D03*
Y5636220D02*
D03*
Y5509220D02*
D03*
Y5382220D02*
D03*
Y5255220D02*
D03*
Y5128220D02*
D03*
Y5001220D02*
D03*
Y4874220D02*
D03*
Y4747220D02*
D03*
Y4620220D02*
D03*
Y4493220D02*
D03*
Y4366220D02*
D03*
D83*
X750280Y5939720D02*
D03*
X877280D02*
D03*
X1004280D02*
D03*
X1131280D02*
D03*
X1258280D02*
D03*
X1385280D02*
D03*
X1512280D02*
D03*
X1639280D02*
D03*
X1766280D02*
D03*
X1893280D02*
D03*
X2020280D02*
D03*
X2147280D02*
D03*
X2274280D02*
D03*
X2401280D02*
D03*
Y4189720D02*
D03*
X2274280D02*
D03*
X2147280D02*
D03*
X2020280D02*
D03*
X1893280D02*
D03*
X1766280D02*
D03*
X1639280D02*
D03*
X1512280D02*
D03*
X1385280D02*
D03*
X1258280D02*
D03*
X1131280D02*
D03*
X1004280D02*
D03*
X877280D02*
D03*
X750280D02*
D03*
D84*
X1183020Y436293D02*
D03*
X1049020D02*
D03*
D85*
X4615420Y989582D02*
D03*
X4488420D02*
D03*
X4361420D02*
D03*
X4234420D02*
D03*
X4107420D02*
D03*
X3980420D02*
D03*
X3853420D02*
D03*
X3726420D02*
D03*
X4615420Y444582D02*
D03*
X4488420D02*
D03*
X4361420D02*
D03*
X4234420D02*
D03*
X4107420D02*
D03*
X3980420D02*
D03*
X3853420D02*
D03*
X3726420D02*
D03*
D86*
X1894121Y501200D02*
D03*
Y1208100D02*
D03*
D87*
X2479121Y731200D02*
D03*
Y501200D02*
D03*
Y271200D02*
D03*
Y1438100D02*
D03*
Y1208100D02*
D03*
Y978100D02*
D03*
D88*
X1191260Y636289D02*
D03*
Y731289D02*
D03*
Y917240D02*
D03*
Y822240D02*
D03*
X1371600Y341293D02*
D03*
Y436293D02*
D03*
D89*
X1552400Y614296D02*
D03*
X1422400D02*
D03*
X2696370Y5763220D02*
D03*
X2826370D02*
D03*
X360000Y3739200D02*
D03*
X230000D02*
D03*
D90*
X3213100Y347980D02*
D03*
Y932980D02*
D03*
D91*
X889980Y3662520D02*
D03*
X604980D02*
D03*
D92*
X3840420Y1164222D02*
D03*
X3970420D02*
D03*
X4364420D02*
D03*
X4234420D02*
D03*
X4364420Y266921D02*
D03*
X4234420D02*
D03*
D93*
X3590020Y1117944D02*
D03*
Y987943D02*
D03*
%TF.MD5,557640c9660e890cd5eef8d337437024*%
M02*
