%TF.GenerationSoftware,Altium Limited,Altium Designer,20.1.8 (145)*%
G04 Layer_Color=8421504*
%FSLAX45Y45*%
%MOMM*%
%TF.SameCoordinates,C5ED230C-B98B-42D8-9333-440794D2D960*%
%TF.FilePolarity,Positive*%
%TF.FileFunction,Paste,Top*%
%TF.Part,Single*%
G01*
G75*
%TA.AperFunction,SMDPad,CuDef*%
G04:AMPARAMS|DCode=13|XSize=2.1mm|YSize=1mm|CornerRadius=0.05mm|HoleSize=0mm|Usage=FLASHONLY|Rotation=270.000|XOffset=0mm|YOffset=0mm|HoleType=Round|Shape=RoundedRectangle|*
%AMROUNDEDRECTD13*
21,1,2.10000,0.90000,0,0,270.0*
21,1,2.00000,1.00000,0,0,270.0*
1,1,0.10000,-0.45000,-1.00000*
1,1,0.10000,-0.45000,1.00000*
1,1,0.10000,0.45000,1.00000*
1,1,0.10000,0.45000,-1.00000*
%
%ADD13ROUNDEDRECTD13*%
G04:AMPARAMS|DCode=14|XSize=1.275mm|YSize=0.9mm|CornerRadius=0.045mm|HoleSize=0mm|Usage=FLASHONLY|Rotation=270.000|XOffset=0mm|YOffset=0mm|HoleType=Round|Shape=RoundedRectangle|*
%AMROUNDEDRECTD14*
21,1,1.27500,0.81000,0,0,270.0*
21,1,1.18500,0.90000,0,0,270.0*
1,1,0.09000,-0.40500,-0.59250*
1,1,0.09000,-0.40500,0.59250*
1,1,0.09000,0.40500,0.59250*
1,1,0.09000,0.40500,-0.59250*
%
%ADD14ROUNDEDRECTD14*%
G04:AMPARAMS|DCode=15|XSize=0.85mm|YSize=0.8mm|CornerRadius=0.04mm|HoleSize=0mm|Usage=FLASHONLY|Rotation=180.000|XOffset=0mm|YOffset=0mm|HoleType=Round|Shape=RoundedRectangle|*
%AMROUNDEDRECTD15*
21,1,0.85000,0.72000,0,0,180.0*
21,1,0.77000,0.80000,0,0,180.0*
1,1,0.08000,-0.38500,0.36000*
1,1,0.08000,0.38500,0.36000*
1,1,0.08000,0.38500,-0.36000*
1,1,0.08000,-0.38500,-0.36000*
%
%ADD15ROUNDEDRECTD15*%
G04:AMPARAMS|DCode=16|XSize=0.85mm|YSize=0.8mm|CornerRadius=0.048mm|HoleSize=0mm|Usage=FLASHONLY|Rotation=180.000|XOffset=0mm|YOffset=0mm|HoleType=Round|Shape=RoundedRectangle|*
%AMROUNDEDRECTD16*
21,1,0.85000,0.70400,0,0,180.0*
21,1,0.75400,0.80000,0,0,180.0*
1,1,0.09600,-0.37700,0.35200*
1,1,0.09600,0.37700,0.35200*
1,1,0.09600,0.37700,-0.35200*
1,1,0.09600,-0.37700,-0.35200*
%
%ADD16ROUNDEDRECTD16*%
%ADD17O,0.25000X1.40000*%
%ADD18O,1.40000X0.25000*%
G04:AMPARAMS|DCode=19|XSize=1.65mm|YSize=0.8mm|CornerRadius=0.04mm|HoleSize=0mm|Usage=FLASHONLY|Rotation=0.000|XOffset=0mm|YOffset=0mm|HoleType=Round|Shape=RoundedRectangle|*
%AMROUNDEDRECTD19*
21,1,1.65000,0.72000,0,0,0.0*
21,1,1.57000,0.80000,0,0,0.0*
1,1,0.08000,0.78500,-0.36000*
1,1,0.08000,-0.78500,-0.36000*
1,1,0.08000,-0.78500,0.36000*
1,1,0.08000,0.78500,0.36000*
%
%ADD19ROUNDEDRECTD19*%
G04:AMPARAMS|DCode=20|XSize=1.275mm|YSize=0.9mm|CornerRadius=0.045mm|HoleSize=0mm|Usage=FLASHONLY|Rotation=0.000|XOffset=0mm|YOffset=0mm|HoleType=Round|Shape=RoundedRectangle|*
%AMROUNDEDRECTD20*
21,1,1.27500,0.81000,0,0,0.0*
21,1,1.18500,0.90000,0,0,0.0*
1,1,0.09000,0.59250,-0.40500*
1,1,0.09000,-0.59250,-0.40500*
1,1,0.09000,-0.59250,0.40500*
1,1,0.09000,0.59250,0.40500*
%
%ADD20ROUNDEDRECTD20*%
%ADD21R,1.00000X1.20000*%
%TA.AperFunction,ConnectorPad*%
%ADD22R,1.00000X0.45000*%
%TA.AperFunction,BGAPad,CuDef*%
%ADD23R,0.90000X0.90000*%
%TA.AperFunction,ConnectorPad*%
%ADD24R,1.50000X0.90000*%
%ADD25R,0.90000X1.50000*%
%TA.AperFunction,SMDPad,CuDef*%
%ADD26R,0.60000X1.00000*%
%ADD27O,0.60000X1.45000*%
%ADD28R,2.15000X3.25000*%
%ADD29R,2.15000X1.00000*%
G04:AMPARAMS|DCode=30|XSize=0.3mm|YSize=0.4mm|CornerRadius=0.0015mm|HoleSize=0mm|Usage=FLASHONLY|Rotation=0.000|XOffset=0mm|YOffset=0mm|HoleType=Round|Shape=RoundedRectangle|*
%AMROUNDEDRECTD30*
21,1,0.30000,0.39700,0,0,0.0*
21,1,0.29700,0.40000,0,0,0.0*
1,1,0.00300,0.14850,-0.19850*
1,1,0.00300,-0.14850,-0.19850*
1,1,0.00300,-0.14850,0.19850*
1,1,0.00300,0.14850,0.19850*
%
%ADD30ROUNDEDRECTD30*%
G04:AMPARAMS|DCode=31|XSize=0.85mm|YSize=0.8mm|CornerRadius=0.048mm|HoleSize=0mm|Usage=FLASHONLY|Rotation=270.000|XOffset=0mm|YOffset=0mm|HoleType=Round|Shape=RoundedRectangle|*
%AMROUNDEDRECTD31*
21,1,0.85000,0.70400,0,0,270.0*
21,1,0.75400,0.80000,0,0,270.0*
1,1,0.09600,-0.35200,-0.37700*
1,1,0.09600,-0.35200,0.37700*
1,1,0.09600,0.35200,0.37700*
1,1,0.09600,0.35200,-0.37700*
%
%ADD31ROUNDEDRECTD31*%
G04:AMPARAMS|DCode=32|XSize=2.35mm|YSize=2.1mm|CornerRadius=0.0105mm|HoleSize=0mm|Usage=FLASHONLY|Rotation=0.000|XOffset=0mm|YOffset=0mm|HoleType=Round|Shape=RoundedRectangle|*
%AMROUNDEDRECTD32*
21,1,2.35000,2.07900,0,0,0.0*
21,1,2.32900,2.10000,0,0,0.0*
1,1,0.02100,1.16450,-1.03950*
1,1,0.02100,-1.16450,-1.03950*
1,1,0.02100,-1.16450,1.03950*
1,1,0.02100,1.16450,1.03950*
%
%ADD32ROUNDEDRECTD32*%
G04:AMPARAMS|DCode=33|XSize=1.65mm|YSize=0.8mm|CornerRadius=0.04mm|HoleSize=0mm|Usage=FLASHONLY|Rotation=90.000|XOffset=0mm|YOffset=0mm|HoleType=Round|Shape=RoundedRectangle|*
%AMROUNDEDRECTD33*
21,1,1.65000,0.72000,0,0,90.0*
21,1,1.57000,0.80000,0,0,90.0*
1,1,0.08000,0.36000,0.78500*
1,1,0.08000,0.36000,-0.78500*
1,1,0.08000,-0.36000,-0.78500*
1,1,0.08000,-0.36000,0.78500*
%
%ADD33ROUNDEDRECTD33*%
G04:AMPARAMS|DCode=34|XSize=0.848mm|YSize=0.848mm|CornerRadius=0.0424mm|HoleSize=0mm|Usage=FLASHONLY|Rotation=90.000|XOffset=0mm|YOffset=0mm|HoleType=Round|Shape=RoundedRectangle|*
%AMROUNDEDRECTD34*
21,1,0.84800,0.76320,0,0,90.0*
21,1,0.76320,0.84800,0,0,90.0*
1,1,0.08480,0.38160,0.38160*
1,1,0.08480,0.38160,-0.38160*
1,1,0.08480,-0.38160,-0.38160*
1,1,0.08480,-0.38160,0.38160*
%
%ADD34ROUNDEDRECTD34*%
G04:AMPARAMS|DCode=35|XSize=0.848mm|YSize=0.848mm|CornerRadius=0.0424mm|HoleSize=0mm|Usage=FLASHONLY|Rotation=0.000|XOffset=0mm|YOffset=0mm|HoleType=Round|Shape=RoundedRectangle|*
%AMROUNDEDRECTD35*
21,1,0.84800,0.76320,0,0,0.0*
21,1,0.76320,0.84800,0,0,0.0*
1,1,0.08480,0.38160,-0.38160*
1,1,0.08480,-0.38160,-0.38160*
1,1,0.08480,-0.38160,0.38160*
1,1,0.08480,0.38160,0.38160*
%
%ADD35ROUNDEDRECTD35*%
G36*
X813481Y716272D02*
X689478D01*
Y746267D01*
X813481D01*
Y716272D01*
D02*
G37*
G36*
Y666275D02*
X689478D01*
Y696275D01*
X813481D01*
Y666275D01*
D02*
G37*
G36*
Y616275D02*
X689478D01*
Y646275D01*
X813481D01*
Y616275D01*
D02*
G37*
G36*
Y566275D02*
X689478D01*
Y596275D01*
X813481D01*
Y566275D01*
D02*
G37*
G36*
Y486273D02*
X689478D01*
Y546275D01*
X813481D01*
Y486273D01*
D02*
G37*
G36*
Y406273D02*
X689478D01*
Y466273D01*
X813481D01*
Y406273D01*
D02*
G37*
G36*
X743494Y374213D02*
X745978Y374023D01*
X748452Y373715D01*
X750910Y373281D01*
X753339Y372727D01*
X755736Y372054D01*
X758101Y371257D01*
X760420Y370345D01*
X762693Y369324D01*
X764913Y368183D01*
X767072Y366939D01*
X769168Y365590D01*
X771190Y364129D01*
X773138Y362580D01*
X775010Y360924D01*
X776793Y359184D01*
X778487Y357360D01*
X780087Y355448D01*
X781599Y353461D01*
X783003Y351399D01*
X784301Y349270D01*
X785490Y347088D01*
X786574Y344838D01*
X787540Y342542D01*
X788396Y340195D01*
X789127Y337815D01*
X789747Y335397D01*
X790240Y332953D01*
X790611Y330490D01*
X790862Y328008D01*
X790986Y325519D01*
Y323030D01*
X790862Y320535D01*
X790611Y318056D01*
X790240Y315590D01*
X789747Y313146D01*
X789127Y310736D01*
X788396Y308353D01*
X787540Y306006D01*
X786574Y303708D01*
X785490Y301462D01*
X784301Y299270D01*
X783003Y297150D01*
X781599Y295090D01*
X780087Y293101D01*
X778487Y291188D01*
X776793Y289359D01*
X775010Y287625D01*
X773138Y285968D01*
X771190Y284416D01*
X769168Y282961D01*
X767072Y281612D01*
X764913Y280360D01*
X762693Y279225D01*
X760420Y278199D01*
X758101Y277289D01*
X755736Y276497D01*
X753339Y275821D01*
X750910Y275267D01*
X748452Y274833D01*
X745978Y274521D01*
X743494Y274338D01*
X740999Y274274D01*
X630997D01*
X628508Y274338D01*
X626019Y274521D01*
X623542Y274833D01*
X621091Y275267D01*
X618663Y275821D01*
X616260Y276497D01*
X613895Y277289D01*
X611576Y278199D01*
X609300Y279225D01*
X607088Y280360D01*
X604929Y281612D01*
X602833Y282961D01*
X600807Y284416D01*
X598856Y285968D01*
X596991Y287625D01*
X595201Y289359D01*
X593509Y291188D01*
X591909Y293101D01*
X590403Y295090D01*
X588998Y297150D01*
X587695Y299270D01*
X586504Y301462D01*
X585419Y303708D01*
X584454Y306006D01*
X583601Y308353D01*
X582866Y310736D01*
X582249Y313146D01*
X581757Y315590D01*
X581386Y318056D01*
X581139Y320535D01*
X581015Y323030D01*
Y325519D01*
X581139Y328008D01*
X581386Y330490D01*
X581757Y332953D01*
X582249Y335397D01*
X582866Y337815D01*
X583601Y340195D01*
X584454Y342542D01*
X585419Y344838D01*
X586504Y347088D01*
X587695Y349270D01*
X588998Y351399D01*
X590403Y353461D01*
X591909Y355448D01*
X593509Y357360D01*
X595201Y359184D01*
X596991Y360924D01*
X598856Y362580D01*
X600807Y364129D01*
X602833Y365590D01*
X604929Y366939D01*
X607088Y368183D01*
X609300Y369324D01*
X611576Y370345D01*
X613895Y371257D01*
X616260Y372054D01*
X618663Y372727D01*
X621091Y373281D01*
X623542Y373715D01*
X626019Y374023D01*
X628508Y374213D01*
X630997Y374272D01*
X740999D01*
X743494Y374213D01*
D02*
G37*
G36*
X310485D02*
X312969Y374023D01*
X315445Y373715D01*
X317901Y373281D01*
X320330Y372727D01*
X322727Y372054D01*
X325092Y371257D01*
X327414Y370345D01*
X329687Y369324D01*
X331904Y368183D01*
X334066Y366939D01*
X336159Y365590D01*
X338183Y364129D01*
X340131Y362580D01*
X342003Y360924D01*
X343786Y359184D01*
X345478Y357360D01*
X347086Y355448D01*
X348590Y353461D01*
X349994Y351399D01*
X351295Y349270D01*
X352488Y347088D01*
X353568Y344838D01*
X354538Y342542D01*
X355389Y340195D01*
X356126Y337815D01*
X356738Y335397D01*
X357233Y332953D01*
X357602Y330490D01*
X357856Y328008D01*
X357977Y325519D01*
Y323030D01*
X357856Y320535D01*
X357602Y318056D01*
X357233Y315590D01*
X356738Y313146D01*
X356126Y310736D01*
X355389Y308353D01*
X354538Y306006D01*
X353568Y303708D01*
X352488Y301462D01*
X351295Y299270D01*
X349994Y297150D01*
X348590Y295090D01*
X347086Y293101D01*
X345478Y291188D01*
X343786Y289359D01*
X342003Y287625D01*
X340131Y285968D01*
X338183Y284416D01*
X336159Y282961D01*
X334066Y281612D01*
X331904Y280360D01*
X329687Y279225D01*
X327414Y278199D01*
X325092Y277289D01*
X322727Y276497D01*
X320330Y275821D01*
X317901Y275267D01*
X315445Y274833D01*
X312969Y274521D01*
X310485Y274338D01*
X307993Y274274D01*
X227990D01*
X225496Y274338D01*
X223012Y274521D01*
X220538Y274833D01*
X218082Y275267D01*
X215651Y275821D01*
X213253Y276497D01*
X210889Y277289D01*
X208570Y278199D01*
X206296Y279225D01*
X204076Y280360D01*
X201922Y281612D01*
X199822Y282961D01*
X197800Y284416D01*
X195852Y285968D01*
X193985Y287625D01*
X192197Y289359D01*
X190503Y291188D01*
X188902Y293101D01*
X187394Y295090D01*
X185989Y297150D01*
X184688Y299270D01*
X183500Y301462D01*
X182415Y303708D01*
X181450Y306006D01*
X180594Y308353D01*
X179862Y310736D01*
X179245Y313146D01*
X178750Y315590D01*
X178379Y318056D01*
X178133Y320535D01*
X178006Y323030D01*
Y325519D01*
X178133Y328008D01*
X178379Y330490D01*
X178750Y332953D01*
X179245Y335397D01*
X179862Y337815D01*
X180594Y340195D01*
X181450Y342542D01*
X182415Y344838D01*
X183500Y347088D01*
X184688Y349270D01*
X185989Y351399D01*
X187394Y353461D01*
X188902Y355448D01*
X190503Y357360D01*
X192197Y359184D01*
X193985Y360924D01*
X195852Y362580D01*
X197800Y364129D01*
X199822Y365590D01*
X201922Y366939D01*
X204076Y368183D01*
X206296Y369324D01*
X208570Y370345D01*
X210889Y371257D01*
X213253Y372054D01*
X215651Y372727D01*
X218082Y373281D01*
X220538Y373715D01*
X223012Y374023D01*
X225496Y374213D01*
X227990Y374272D01*
X307993D01*
X310485Y374213D01*
D02*
G37*
G36*
X743494Y1238217D02*
X745978Y1238032D01*
X748452Y1237722D01*
X750910Y1237292D01*
X753339Y1236734D01*
X755736Y1236055D01*
X758101Y1235265D01*
X760420Y1234354D01*
X762693Y1233330D01*
X764913Y1232190D01*
X767072Y1230942D01*
X769168Y1229591D01*
X771190Y1228138D01*
X773138Y1226586D01*
X775010Y1224930D01*
X776793Y1223193D01*
X778487Y1221367D01*
X780087Y1219454D01*
X781599Y1217465D01*
X783003Y1215405D01*
X784301Y1213277D01*
X785490Y1211090D01*
X786574Y1208842D01*
X787540Y1206548D01*
X788396Y1204206D01*
X789127Y1201819D01*
X789747Y1199406D01*
X790240Y1196965D01*
X790611Y1194498D01*
X790862Y1192017D01*
X790986Y1189530D01*
Y1187036D01*
X790862Y1184542D01*
X790611Y1182060D01*
X790240Y1179596D01*
X789747Y1177155D01*
X789127Y1174740D01*
X788396Y1172360D01*
X787540Y1170013D01*
X786574Y1167717D01*
X785490Y1165466D01*
X784301Y1163279D01*
X783003Y1161156D01*
X781599Y1159093D01*
X780087Y1157107D01*
X778487Y1155195D01*
X776793Y1153368D01*
X775010Y1151631D01*
X773138Y1149980D01*
X771190Y1148423D01*
X769168Y1146965D01*
X767072Y1145614D01*
X764913Y1144369D01*
X762693Y1143231D01*
X760420Y1142208D01*
X758101Y1141296D01*
X755736Y1140501D01*
X753339Y1139828D01*
X750910Y1139274D01*
X748452Y1138839D01*
X745978Y1138527D01*
X743494Y1138342D01*
X740999Y1138281D01*
X630997D01*
X628508Y1138342D01*
X626019Y1138527D01*
X623542Y1138839D01*
X621091Y1139274D01*
X618663Y1139828D01*
X616260Y1140501D01*
X613895Y1141296D01*
X611576Y1142208D01*
X609300Y1143231D01*
X607088Y1144369D01*
X604929Y1145614D01*
X602833Y1146965D01*
X600807Y1148423D01*
X598856Y1149980D01*
X596991Y1151631D01*
X595201Y1153368D01*
X593509Y1155195D01*
X591909Y1157107D01*
X590403Y1159093D01*
X588998Y1161156D01*
X587695Y1163279D01*
X586504Y1165466D01*
X585419Y1167717D01*
X584454Y1170013D01*
X583601Y1172360D01*
X582866Y1174740D01*
X582249Y1177155D01*
X581757Y1179596D01*
X581386Y1182060D01*
X581139Y1184542D01*
X581015Y1187036D01*
Y1189530D01*
X581139Y1192017D01*
X581386Y1194498D01*
X581757Y1196965D01*
X582249Y1199406D01*
X582866Y1201819D01*
X583601Y1204206D01*
X584454Y1206548D01*
X585419Y1208842D01*
X586504Y1211090D01*
X587695Y1213277D01*
X588998Y1215405D01*
X590403Y1217465D01*
X591909Y1219454D01*
X593509Y1221367D01*
X595201Y1223193D01*
X596991Y1224930D01*
X598856Y1226586D01*
X600807Y1228138D01*
X602833Y1229591D01*
X604929Y1230942D01*
X607088Y1232190D01*
X609300Y1233330D01*
X611576Y1234354D01*
X613895Y1235265D01*
X616260Y1236055D01*
X618663Y1236734D01*
X621091Y1237292D01*
X623542Y1237722D01*
X626019Y1238032D01*
X628508Y1238217D01*
X630997Y1238280D01*
X740999D01*
X743494Y1238217D01*
D02*
G37*
G36*
X310485D02*
X312969Y1238032D01*
X315445Y1237722D01*
X317901Y1237292D01*
X320330Y1236734D01*
X322727Y1236055D01*
X325092Y1235265D01*
X327414Y1234354D01*
X329687Y1233330D01*
X331904Y1232190D01*
X334066Y1230942D01*
X336159Y1229591D01*
X338183Y1228138D01*
X340131Y1226586D01*
X342003Y1224930D01*
X343786Y1223193D01*
X345478Y1221367D01*
X347086Y1219454D01*
X348590Y1217465D01*
X349994Y1215405D01*
X351295Y1213277D01*
X352488Y1211090D01*
X353568Y1208842D01*
X354538Y1206548D01*
X355389Y1204206D01*
X356126Y1201819D01*
X356738Y1199406D01*
X357233Y1196965D01*
X357602Y1194498D01*
X357856Y1192017D01*
X357977Y1189530D01*
Y1187036D01*
X357856Y1184542D01*
X357602Y1182060D01*
X357233Y1179596D01*
X356738Y1177155D01*
X356126Y1174740D01*
X355389Y1172360D01*
X354538Y1170013D01*
X353568Y1167717D01*
X352488Y1165466D01*
X351295Y1163279D01*
X349994Y1161156D01*
X348590Y1159093D01*
X347086Y1157107D01*
X345478Y1155195D01*
X343786Y1153368D01*
X342003Y1151631D01*
X340131Y1149980D01*
X338183Y1148423D01*
X336159Y1146965D01*
X334066Y1145614D01*
X331904Y1144369D01*
X329687Y1143231D01*
X327414Y1142208D01*
X325092Y1141296D01*
X322727Y1140501D01*
X320330Y1139828D01*
X317901Y1139274D01*
X315445Y1138839D01*
X312969Y1138527D01*
X310485Y1138342D01*
X307993Y1138281D01*
X227990D01*
X225496Y1138342D01*
X223012Y1138527D01*
X220538Y1138839D01*
X218082Y1139274D01*
X215651Y1139828D01*
X213253Y1140501D01*
X210889Y1141296D01*
X208570Y1142208D01*
X206296Y1143231D01*
X204076Y1144369D01*
X201922Y1145614D01*
X199822Y1146965D01*
X197800Y1148423D01*
X195852Y1149980D01*
X193985Y1151631D01*
X192197Y1153368D01*
X190503Y1155195D01*
X188902Y1157107D01*
X187394Y1159093D01*
X185989Y1161156D01*
X184688Y1163279D01*
X183500Y1165466D01*
X182415Y1167717D01*
X181450Y1170013D01*
X180594Y1172360D01*
X179862Y1174740D01*
X179245Y1177155D01*
X178750Y1179596D01*
X178379Y1182060D01*
X178133Y1184542D01*
X178006Y1187036D01*
Y1189530D01*
X178133Y1192017D01*
X178379Y1194498D01*
X178750Y1196965D01*
X179245Y1199406D01*
X179862Y1201819D01*
X180594Y1204206D01*
X181450Y1206548D01*
X182415Y1208842D01*
X183500Y1211090D01*
X184688Y1213277D01*
X185989Y1215405D01*
X187394Y1217465D01*
X188902Y1219454D01*
X190503Y1221367D01*
X192197Y1223193D01*
X193985Y1224930D01*
X195852Y1226586D01*
X197800Y1228138D01*
X199822Y1229591D01*
X201922Y1230942D01*
X204076Y1232190D01*
X206296Y1233330D01*
X208570Y1234354D01*
X210889Y1235265D01*
X213253Y1236055D01*
X215651Y1236734D01*
X218082Y1237292D01*
X220538Y1237722D01*
X223012Y1238032D01*
X225496Y1238217D01*
X227990Y1238280D01*
X307993D01*
X310485Y1238217D01*
D02*
G37*
G36*
X813481Y1046274D02*
X689478D01*
Y1106274D01*
X813481D01*
Y1046274D01*
D02*
G37*
G36*
Y966269D02*
X689478D01*
Y1026274D01*
X813481D01*
Y966269D01*
D02*
G37*
G36*
Y916269D02*
X689478D01*
Y946272D01*
X813481D01*
Y916269D01*
D02*
G37*
G36*
Y866270D02*
X689478D01*
Y896272D01*
X813481D01*
Y866270D01*
D02*
G37*
G36*
Y816267D02*
X689478D01*
Y846272D01*
X813481D01*
Y816267D01*
D02*
G37*
G36*
Y766267D02*
X689478D01*
Y796267D01*
X813481D01*
Y766267D01*
D02*
G37*
D13*
X2236680Y2533280D02*
D03*
Y1693280D02*
D03*
X1786680Y2533280D02*
D03*
Y1693280D02*
D03*
D14*
X4793161Y2653780D02*
D03*
X4968401D02*
D03*
X4860621Y2478700D02*
D03*
X5035861D02*
D03*
X4846021Y2305210D02*
D03*
X5021261D02*
D03*
X895060Y3896480D02*
D03*
X719820D02*
D03*
X3339180Y4280000D02*
D03*
X3514420D02*
D03*
D15*
X1296930Y3612220D02*
D03*
Y3742221D02*
D03*
X1150980Y3612220D02*
D03*
Y3742221D02*
D03*
D16*
X1296930Y3250021D02*
D03*
Y3380021D02*
D03*
X1007280D02*
D03*
Y3250021D02*
D03*
X1150980D02*
D03*
Y3380021D02*
D03*
X3537801Y3244260D02*
D03*
Y3114260D02*
D03*
X2645145Y4057457D02*
D03*
Y4187457D02*
D03*
X977900Y1070180D02*
D03*
Y940180D02*
D03*
X3547961Y1979340D02*
D03*
Y2109340D02*
D03*
X3520658Y4448460D02*
D03*
Y4578460D02*
D03*
D17*
X4386781Y2083700D02*
D03*
X4336781D02*
D03*
X4286781D02*
D03*
X4236781D02*
D03*
X4186781D02*
D03*
X4136781D02*
D03*
X4086781D02*
D03*
X4036781D02*
D03*
X3986781D02*
D03*
X3936781D02*
D03*
X3886781D02*
D03*
X3836781D02*
D03*
Y2923700D02*
D03*
X3886781D02*
D03*
X3936781D02*
D03*
X3986781D02*
D03*
X4036781D02*
D03*
X4086781D02*
D03*
X4136781D02*
D03*
X4186781D02*
D03*
X4236781D02*
D03*
X4286781D02*
D03*
X4336781D02*
D03*
X4386781D02*
D03*
D18*
X3691781Y2228700D02*
D03*
Y2278700D02*
D03*
Y2328700D02*
D03*
Y2378700D02*
D03*
Y2428700D02*
D03*
Y2478700D02*
D03*
Y2528700D02*
D03*
Y2578700D02*
D03*
Y2628700D02*
D03*
Y2678700D02*
D03*
Y2728700D02*
D03*
Y2778700D02*
D03*
X4531781D02*
D03*
Y2728700D02*
D03*
Y2678700D02*
D03*
Y2628700D02*
D03*
Y2578700D02*
D03*
Y2528700D02*
D03*
Y2478700D02*
D03*
Y2428700D02*
D03*
Y2378700D02*
D03*
Y2328700D02*
D03*
Y2278700D02*
D03*
Y2228700D02*
D03*
D19*
X4922101Y3231559D02*
D03*
Y3516559D02*
D03*
X3583521Y1793920D02*
D03*
Y1508920D02*
D03*
X3045763Y2428700D02*
D03*
Y2143700D02*
D03*
D20*
X4696041Y3231559D02*
D03*
Y3406799D02*
D03*
X4492841Y3231559D02*
D03*
Y3406799D02*
D03*
X3946741Y3193460D02*
D03*
Y3368700D02*
D03*
X3715601Y3193460D02*
D03*
Y3368700D02*
D03*
X2788002Y731201D02*
D03*
Y906441D02*
D03*
X2788001Y1438100D02*
D03*
Y1262860D02*
D03*
X3283125Y2428700D02*
D03*
Y2253460D02*
D03*
X3836781Y1793920D02*
D03*
Y1618680D02*
D03*
X4074881Y1753920D02*
D03*
Y1578680D02*
D03*
X4463001Y1718840D02*
D03*
Y1543600D02*
D03*
X4267261Y1693920D02*
D03*
Y1518680D02*
D03*
X2788001Y271200D02*
D03*
Y446440D02*
D03*
D21*
X4302640Y3231559D02*
D03*
X4172640D02*
D03*
X4302640Y3401559D02*
D03*
X4172640D02*
D03*
D22*
X3733800Y4348460D02*
D03*
Y4418460D02*
D03*
Y4488460D02*
D03*
Y4558460D02*
D03*
Y4628460D02*
D03*
Y4698460D02*
D03*
Y4768460D02*
D03*
Y4838460D02*
D03*
Y4908460D02*
D03*
Y4978460D02*
D03*
Y5048460D02*
D03*
Y5118460D02*
D03*
D23*
X1382280Y4774720D02*
D03*
Y4914720D02*
D03*
Y5054720D02*
D03*
X1522280Y4914720D02*
D03*
Y4774720D02*
D03*
Y5054720D02*
D03*
X1662280Y4774720D02*
D03*
Y4914720D02*
D03*
Y5054720D02*
D03*
D24*
X2526280Y5763220D02*
D03*
Y5636220D02*
D03*
Y5509220D02*
D03*
Y5382220D02*
D03*
Y5255220D02*
D03*
Y5128220D02*
D03*
Y5001220D02*
D03*
Y4874220D02*
D03*
Y4747220D02*
D03*
Y4620220D02*
D03*
Y4493220D02*
D03*
Y4366220D02*
D03*
D25*
X750280Y5939720D02*
D03*
X877280D02*
D03*
X1004280D02*
D03*
X1131280D02*
D03*
X1258280D02*
D03*
X1385280D02*
D03*
X1512280D02*
D03*
X1639280D02*
D03*
X1766280D02*
D03*
X1893280D02*
D03*
X2020280D02*
D03*
X2147280D02*
D03*
X2274280D02*
D03*
X2401280D02*
D03*
Y4189720D02*
D03*
X2274280D02*
D03*
X2147280D02*
D03*
X2020280D02*
D03*
X1893280D02*
D03*
X1766280D02*
D03*
X1639280D02*
D03*
X1512280D02*
D03*
X1385280D02*
D03*
X1258280D02*
D03*
X1131280D02*
D03*
X1004280D02*
D03*
X877280D02*
D03*
X750280D02*
D03*
D26*
X1183020Y436293D02*
D03*
X1049020D02*
D03*
D27*
X4615420Y989582D02*
D03*
X4488420D02*
D03*
X4361420D02*
D03*
X4234420D02*
D03*
X4107420D02*
D03*
X3980420D02*
D03*
X3853420D02*
D03*
X3726420D02*
D03*
X4615420Y444582D02*
D03*
X4488420D02*
D03*
X4361420D02*
D03*
X4234420D02*
D03*
X4107420D02*
D03*
X3980420D02*
D03*
X3853420D02*
D03*
X3726420D02*
D03*
D28*
X1894121Y501200D02*
D03*
Y1208100D02*
D03*
D29*
X2479121Y731200D02*
D03*
Y501200D02*
D03*
Y271200D02*
D03*
Y1438100D02*
D03*
Y1208100D02*
D03*
Y978100D02*
D03*
D30*
X1191260Y636289D02*
D03*
Y731289D02*
D03*
Y917240D02*
D03*
Y822240D02*
D03*
X1371600Y341293D02*
D03*
Y436293D02*
D03*
D31*
X1552400Y614296D02*
D03*
X1422400D02*
D03*
X2696370Y5763220D02*
D03*
X2826370D02*
D03*
X360000Y3739200D02*
D03*
X230000D02*
D03*
D32*
X3213100Y347980D02*
D03*
Y932980D02*
D03*
D33*
X889980Y3662520D02*
D03*
X604980D02*
D03*
D34*
X3840420Y1164222D02*
D03*
X3970420D02*
D03*
X4364420D02*
D03*
X4234420D02*
D03*
X4364420Y266921D02*
D03*
X4234420D02*
D03*
D35*
X3590020Y1117944D02*
D03*
Y987943D02*
D03*
%TF.MD5,a988b71316a33a16a69bab15b0836718*%
M02*
