%TF.GenerationSoftware,Altium Limited,Altium Designer,20.1.8 (145)*%
G04 Layer_Color=0*
%FSLAX45Y45*%
%MOMM*%
%TF.SameCoordinates,75FC8B90-4BF3-40FB-8E76-FB7BBE10E466*%
%TF.FilePolarity,Positive*%
%TF.FileFunction,Plated,1,4,PTH,Drill*%
%TF.Part,Single*%
G01*
G75*
%TA.AperFunction,ComponentDrill*%
%ADD97O,1.70000X0.60000*%
%ADD98O,1.40000X0.60000*%
%ADD99C,0.80000*%
%ADD100C,0.80000*%
%ADD101C,0.30000*%
%ADD102C,0.95000*%
%ADD103O,3.00000X1.50000*%
%ADD104O,0.50000X1.25000*%
%ADD105C,0.76200*%
%TA.AperFunction,ViaDrill,NotFilled*%
%ADD106C,0.30000*%
D97*
X686001Y1188286D02*
D03*
Y324279D02*
D03*
D98*
X267993Y1188286D02*
D03*
Y324279D02*
D03*
D99*
X2538094Y3433784D02*
D03*
Y3179784D02*
D03*
X2794000D02*
D03*
X4945380Y436880D02*
D03*
X5199380D02*
D03*
X4945382Y1084580D02*
D03*
X5199382D02*
D03*
X4780309Y1576652D02*
D03*
Y1830652D02*
D03*
X2538094Y2925784D02*
D03*
D100*
X2794000Y3433784D02*
D03*
Y2671784D02*
D03*
Y2925784D02*
D03*
X2538094Y2671784D02*
D03*
X3746500Y5913500D02*
D03*
X3492500D02*
D03*
D101*
X1452280Y5054720D02*
D03*
X1592280D02*
D03*
Y4774720D02*
D03*
X1452280D02*
D03*
X1662280Y4704720D02*
D03*
X1522280D02*
D03*
X1382280D02*
D03*
X1732280Y5054720D02*
D03*
Y4914720D02*
D03*
Y4774720D02*
D03*
X1382280Y5124720D02*
D03*
X1662280D02*
D03*
X1522280D02*
D03*
X1312280Y5054720D02*
D03*
Y4774720D02*
D03*
Y4914720D02*
D03*
X1662280Y4984720D02*
D03*
Y4844720D02*
D03*
X1522280Y4984720D02*
D03*
Y4844720D02*
D03*
X1382280Y4984720D02*
D03*
Y4844720D02*
D03*
X1592280Y4914720D02*
D03*
X1452280D02*
D03*
D102*
X397000Y2876000D02*
D03*
Y3130000D02*
D03*
Y3384000D02*
D03*
X143000D02*
D03*
Y3130000D02*
D03*
Y2876000D02*
D03*
D103*
X838200Y1410680D02*
D03*
Y2485680D02*
D03*
D104*
X138200Y2198180D02*
D03*
Y1698180D02*
D03*
X1588200Y1948180D02*
D03*
Y2198180D02*
D03*
Y1698180D02*
D03*
D105*
X5103001Y6162500D02*
D03*
X4849001D02*
D03*
X4595001D02*
D03*
X4341001D02*
D03*
X4087001D02*
D03*
X3833001D02*
D03*
X3579001D02*
D03*
X3325001D02*
D03*
D106*
X4463001Y1830652D02*
D03*
X4725045Y3418442D02*
D03*
X5013284Y2563279D02*
D03*
X3468802Y3139148D02*
D03*
X4932261Y3073719D02*
D03*
X4154724Y3508809D02*
D03*
X4091224D02*
D03*
X4041140Y3098800D02*
D03*
X3931701Y3032320D02*
D03*
X3995251D02*
D03*
X3756241Y2923700D02*
D03*
X1672384Y1600542D02*
D03*
X1889426Y1615164D02*
D03*
X1894121Y1001004D02*
D03*
X2150187Y4038600D02*
D03*
X875473Y3250046D02*
D03*
Y3484572D02*
D03*
X4107420Y853693D02*
D03*
X4487850Y876720D02*
D03*
X4364420Y179321D02*
D03*
X4032731Y349582D02*
D03*
X3590575Y1201400D02*
D03*
X3755777Y1165873D02*
D03*
X2822500Y5665000D02*
D03*
X3847502Y4038506D02*
D03*
X3974534Y4428893D02*
D03*
X4451160Y1163727D02*
D03*
X3368202Y933257D02*
D03*
X3832814Y2400548D02*
D03*
X3829164Y2534685D02*
D03*
X4402367Y2533937D02*
D03*
X4369294Y2798552D02*
D03*
X4653242Y2806841D02*
D03*
X4451322Y2914311D02*
D03*
X4560628Y3036898D02*
D03*
X3355652Y1785575D02*
D03*
X1040000Y4520000D02*
D03*
X2919600Y731201D02*
D03*
X720294Y4390157D02*
D03*
X4736225Y2308222D02*
D03*
X3733800Y4280000D02*
D03*
X538178Y598941D02*
D03*
X552930Y904130D02*
D03*
X1360390Y810301D02*
D03*
X2339340Y4064380D02*
D03*
X609600Y646529D02*
D03*
X3365108Y2185758D02*
D03*
X3301604Y2187164D02*
D03*
X3170223Y2237400D02*
D03*
X3106723D02*
D03*
X3170223Y2050000D02*
D03*
X3106723D02*
D03*
X3209177Y5052634D02*
D03*
X4006953Y4966894D02*
D03*
X3905983Y5037404D02*
D03*
X4009475Y4850025D02*
D03*
X3916557Y4775666D02*
D03*
X2237841Y2379538D02*
D03*
X2237740Y1838960D02*
D03*
X2788001Y537980D02*
D03*
X2675741Y446440D02*
D03*
X2899261D02*
D03*
X2787228Y994217D02*
D03*
X2681540Y906427D02*
D03*
X2895526Y907589D02*
D03*
X2680069Y1263457D02*
D03*
X2895184Y1263482D02*
D03*
X2787488Y1174789D02*
D03*
X2479121Y596500D02*
D03*
Y406000D02*
D03*
X2316621Y501200D02*
D03*
X2641181D02*
D03*
X2627903Y1209894D02*
D03*
X2331378Y1209089D02*
D03*
X2478624Y1117820D02*
D03*
X2479121Y1303400D02*
D03*
X4899241Y3372059D02*
D03*
X4962741D02*
D03*
X4899241Y3559459D02*
D03*
X4962741D02*
D03*
X4638949Y3334009D02*
D03*
X4810214Y3333513D02*
D03*
X4467132Y3335756D02*
D03*
X4554865Y3418442D02*
D03*
X3911665Y3438520D02*
D03*
X3975165D02*
D03*
X3781706Y3390670D02*
D03*
X3718206D02*
D03*
X3212802Y1076863D02*
D03*
X3434712Y2470424D02*
D03*
X3417571Y2586493D02*
D03*
X3583521Y1422990D02*
D03*
Y1594851D02*
D03*
X3519285Y2464060D02*
D03*
X3527811Y2637203D02*
D03*
X3621973Y2845215D02*
D03*
X3504199Y2801584D02*
D03*
X3821061Y1974260D02*
D03*
Y2202282D02*
D03*
X3772448Y2843094D02*
D03*
X3996471Y1968602D02*
D03*
X3979161Y2193700D02*
D03*
X4044401D02*
D03*
X3963071Y2811160D02*
D03*
X4024081D02*
D03*
X4487850Y557443D02*
D03*
X3980419Y557533D02*
D03*
X4186244Y1426924D02*
D03*
X4236781Y2815080D02*
D03*
Y3032320D02*
D03*
X4347205Y1426924D02*
D03*
X4426092Y1501196D02*
D03*
X4350567Y1970975D02*
D03*
X4421781D02*
D03*
X4334241Y2193700D02*
D03*
X4408479Y2211833D02*
D03*
X4424321Y2378700D02*
D03*
X4642701Y2238940D02*
D03*
X4531781Y2173700D02*
D03*
X4642701D02*
D03*
X3840420Y1249138D02*
D03*
X5001799Y2217360D02*
D03*
X4945245Y2741811D02*
D03*
X5099051Y2477935D02*
D03*
X4945806Y2568603D02*
D03*
X3055932Y932372D02*
D03*
X3212477Y787579D02*
D03*
X3581781Y2278700D02*
D03*
X4452020Y266921D02*
D03*
X3797056Y1550818D02*
D03*
X3712632Y1508920D02*
D03*
X3776405Y2083215D02*
D03*
X3801781Y2278700D02*
D03*
X4032775Y1534880D02*
D03*
X4421781Y2280290D02*
D03*
X4443414Y2082061D02*
D03*
X4752294Y2478700D02*
D03*
X5029890Y2654126D02*
D03*
X4487533Y331802D02*
D03*
X3927847Y349582D02*
D03*
X4074879Y1865887D02*
D03*
X4060211Y1968602D02*
D03*
X3493535Y2354641D02*
D03*
X3899520Y2811160D02*
D03*
X4085091Y2801160D02*
D03*
X4488420Y1112082D02*
D03*
X4266725Y1426924D02*
D03*
X4506572Y1501196D02*
D03*
X4694181Y2387761D02*
D03*
X4675541Y2648700D02*
D03*
X5082478Y2307190D02*
D03*
X5005547Y2392022D02*
D03*
X3877536Y1550818D02*
D03*
X3454410Y1508920D02*
D03*
X4113255Y1534880D02*
D03*
X4779102Y1248140D02*
D03*
X3606821Y4348460D02*
D03*
X3429340Y4280000D02*
D03*
X3606821Y4168865D02*
D03*
Y4280000D02*
D03*
X3514420Y4168865D02*
D03*
X3412876Y4655706D02*
D03*
X3250809Y4749510D02*
D03*
X3123800Y6418864D02*
D03*
X1506880Y6428864D02*
D03*
X1319080Y6058585D02*
D03*
X1954080D02*
D03*
X1827080D02*
D03*
X1700080D02*
D03*
X1573080D02*
D03*
X1446080D02*
D03*
X230000Y3625859D02*
D03*
X710280Y6060000D02*
D03*
X790280D02*
D03*
Y5819440D02*
D03*
X710280D02*
D03*
X719820Y3792960D02*
D03*
X720440Y4069440D02*
D03*
X800440D02*
D03*
X800280Y4310000D02*
D03*
X604980Y3540000D02*
D03*
X692480Y3662520D02*
D03*
X512700D02*
D03*
X804900Y3897730D02*
D03*
X604980Y3790000D02*
D03*
X719820Y4000000D02*
D03*
X720280Y4310000D02*
D03*
X2555240Y4058920D02*
D03*
X1040000Y4400160D02*
D03*
X3339180Y4148996D02*
D03*
X2645145Y5570000D02*
D03*
Y4427340D02*
D03*
Y4554340D02*
D03*
Y4681340D02*
D03*
Y4808340D02*
D03*
X3833578Y5126073D02*
D03*
X2645145Y5633417D02*
D03*
Y5443340D02*
D03*
Y5321420D02*
D03*
X3547621Y4780980D02*
D03*
X3457268Y4851160D02*
D03*
X3462348Y4965760D02*
D03*
X3552683Y5035760D02*
D03*
X3639809Y5118460D02*
D03*
X3840480Y4348460D02*
D03*
Y4418460D02*
D03*
X3835400Y4620840D02*
D03*
Y4690840D02*
D03*
X3632189Y4631000D02*
D03*
Y4698460D02*
D03*
X2050461Y501200D02*
D03*
X1737781D02*
D03*
Y1208100D02*
D03*
X2050461D02*
D03*
X1893368Y1405990D02*
D03*
X1894121Y713420D02*
D03*
Y294060D02*
D03*
X1640840Y614296D02*
D03*
X2645145Y4935340D02*
D03*
Y5064880D02*
D03*
Y5194420D02*
D03*
X1437640Y341293D02*
D03*
X1305560D02*
D03*
X1257300Y636289D02*
D03*
X1125220D02*
D03*
Y917240D02*
D03*
X1257300D02*
D03*
X609600Y781276D02*
D03*
X1069340Y1070180D02*
D03*
X866140Y1093998D02*
D03*
Y1022878D02*
D03*
Y382900D02*
D03*
Y454020D02*
D03*
%TF.MD5,64cc3c15df18cd85c40fb5d6b640644e*%
M02*
