%TF.GenerationSoftware,Altium Limited,Altium Designer,20.1.8 (145)*%
G04 Layer_Physical_Order=4*
G04 Layer_Color=16711680*
%FSLAX45Y45*%
%MOMM*%
%TF.SameCoordinates,C5ED230C-B98B-42D8-9333-440794D2D960*%
%TF.FilePolarity,Positive*%
%TF.FileFunction,Copper,L4,Bot,Signal*%
%TF.Part,Single*%
G01*
G75*
%TA.AperFunction,Conductor*%
%ADD36C,0.40640*%
%ADD37C,0.20320*%
%ADD38C,0.12700*%
%ADD39C,0.25400*%
%TA.AperFunction,ComponentPad*%
%ADD42C,0.65000*%
%ADD43O,2.10000X1.00000*%
%ADD44O,1.80000X1.00000*%
%ADD45C,1.50000*%
%ADD46C,0.56000*%
G04:AMPARAMS|DCode=47|XSize=1.5mm|YSize=1.45mm|CornerRadius=0.18125mm|HoleSize=0mm|Usage=FLASHONLY|Rotation=90.000|XOffset=0mm|YOffset=0mm|HoleType=Round|Shape=RoundedRectangle|*
%AMROUNDEDRECTD47*
21,1,1.50000,1.08750,0,0,90.0*
21,1,1.13750,1.45000,0,0,90.0*
1,1,0.36250,0.54375,0.56875*
1,1,0.36250,0.54375,-0.56875*
1,1,0.36250,-0.54375,-0.56875*
1,1,0.36250,-0.54375,0.56875*
%
%ADD47ROUNDEDRECTD47*%
%ADD48O,1.45000X1.50000*%
G04:AMPARAMS|DCode=49|XSize=2.25mm|YSize=3.75mm|CornerRadius=1.125mm|HoleSize=0mm|Usage=FLASHONLY|Rotation=90.000|XOffset=0mm|YOffset=0mm|HoleType=Round|Shape=RoundedRectangle|*
%AMROUNDEDRECTD49*
21,1,2.25000,1.50000,0,0,90.0*
21,1,0.00000,3.75000,0,0,90.0*
1,1,2.25000,0.75000,0.00000*
1,1,2.25000,0.75000,0.00000*
1,1,2.25000,-0.75000,0.00000*
1,1,2.25000,-0.75000,0.00000*
%
%ADD49ROUNDEDRECTD49*%
%ADD50O,3.75000X2.25000*%
%ADD51O,1.00000X1.70000*%
%ADD52C,1.52400*%
%TA.AperFunction,ViaPad*%
%ADD53C,0.60000*%
G36*
X5466660Y41341D02*
X33341D01*
Y3883072D01*
X601280D01*
X609084Y3884625D01*
X615700Y3889045D01*
X620120Y3895661D01*
X621672Y3903464D01*
Y6466659D01*
X5466659Y6466659D01*
X5466660Y41341D01*
D02*
G37*
%LPC*%
G36*
X3604402Y6248203D02*
Y6187907D01*
X3664701D01*
X3656655Y6207334D01*
X3642405Y6225904D01*
X3623834Y6240154D01*
X3604402Y6248203D01*
D02*
G37*
G36*
X3553602Y6248204D02*
X3534167Y6240154D01*
X3515596Y6225904D01*
X3501347Y6207334D01*
X3493300Y6187907D01*
X3553602D01*
Y6248204D01*
D02*
G37*
G36*
X3664707Y6137107D02*
X3604402D01*
Y6076797D01*
X3623834Y6084846D01*
X3642405Y6099096D01*
X3656655Y6117667D01*
X3664707Y6137107D01*
D02*
G37*
G36*
X3553602D02*
X3493294D01*
X3501347Y6117667D01*
X3515596Y6099096D01*
X3534167Y6084846D01*
X3553602Y6076796D01*
Y6137107D01*
D02*
G37*
G36*
X5103001Y6252167D02*
X5079793Y6249112D01*
X5058167Y6240154D01*
X5039596Y6225904D01*
X5025347Y6207334D01*
X5016389Y6185708D01*
X5013334Y6162500D01*
X5016389Y6139293D01*
X5025347Y6117667D01*
X5039596Y6099096D01*
X5058167Y6084846D01*
X5079793Y6075889D01*
X5103001Y6072833D01*
X5126208Y6075889D01*
X5147834Y6084846D01*
X5166405Y6099096D01*
X5180655Y6117667D01*
X5189612Y6139293D01*
X5192668Y6162500D01*
X5189612Y6185708D01*
X5180655Y6207334D01*
X5166405Y6225904D01*
X5147834Y6240154D01*
X5126208Y6249112D01*
X5103001Y6252167D01*
D02*
G37*
G36*
X4849001D02*
X4825793Y6249112D01*
X4804167Y6240154D01*
X4785596Y6225904D01*
X4771347Y6207334D01*
X4762389Y6185708D01*
X4759334Y6162500D01*
X4762389Y6139293D01*
X4771347Y6117667D01*
X4785596Y6099096D01*
X4804167Y6084846D01*
X4825793Y6075889D01*
X4849001Y6072833D01*
X4872208Y6075889D01*
X4893834Y6084846D01*
X4912405Y6099096D01*
X4926655Y6117667D01*
X4935612Y6139293D01*
X4938668Y6162500D01*
X4935612Y6185708D01*
X4926655Y6207334D01*
X4912405Y6225904D01*
X4893834Y6240154D01*
X4872208Y6249112D01*
X4849001Y6252167D01*
D02*
G37*
G36*
X4595001D02*
X4571793Y6249112D01*
X4550167Y6240154D01*
X4531596Y6225904D01*
X4517347Y6207334D01*
X4508389Y6185708D01*
X4505334Y6162500D01*
X4508389Y6139293D01*
X4517347Y6117667D01*
X4531596Y6099096D01*
X4550167Y6084846D01*
X4571793Y6075889D01*
X4595001Y6072833D01*
X4618208Y6075889D01*
X4639834Y6084846D01*
X4658405Y6099096D01*
X4672655Y6117667D01*
X4681612Y6139293D01*
X4684668Y6162500D01*
X4681612Y6185708D01*
X4672655Y6207334D01*
X4658405Y6225904D01*
X4639834Y6240154D01*
X4618208Y6249112D01*
X4595001Y6252167D01*
D02*
G37*
G36*
X4341001D02*
X4317793Y6249112D01*
X4296167Y6240154D01*
X4277596Y6225904D01*
X4263347Y6207334D01*
X4254389Y6185708D01*
X4251334Y6162500D01*
X4254389Y6139293D01*
X4263347Y6117667D01*
X4277596Y6099096D01*
X4296167Y6084846D01*
X4317793Y6075889D01*
X4341001Y6072833D01*
X4364208Y6075889D01*
X4385834Y6084846D01*
X4404405Y6099096D01*
X4418655Y6117667D01*
X4427612Y6139293D01*
X4430668Y6162500D01*
X4427612Y6185708D01*
X4418655Y6207334D01*
X4404405Y6225904D01*
X4385834Y6240154D01*
X4364208Y6249112D01*
X4341001Y6252167D01*
D02*
G37*
G36*
X4087001D02*
X4063793Y6249112D01*
X4042167Y6240154D01*
X4023596Y6225904D01*
X4009347Y6207334D01*
X4000389Y6185708D01*
X3997334Y6162500D01*
X4000389Y6139293D01*
X4009347Y6117667D01*
X4023596Y6099096D01*
X4042167Y6084846D01*
X4063793Y6075889D01*
X4087001Y6072833D01*
X4110208Y6075889D01*
X4131834Y6084846D01*
X4150405Y6099096D01*
X4164655Y6117667D01*
X4173612Y6139293D01*
X4176668Y6162500D01*
X4173612Y6185708D01*
X4164655Y6207334D01*
X4150405Y6225904D01*
X4131834Y6240154D01*
X4110208Y6249112D01*
X4087001Y6252167D01*
D02*
G37*
G36*
X3833001D02*
X3809793Y6249112D01*
X3788167Y6240154D01*
X3769596Y6225904D01*
X3755347Y6207334D01*
X3746389Y6185708D01*
X3743334Y6162500D01*
X3746389Y6139293D01*
X3755347Y6117667D01*
X3769596Y6099096D01*
X3788167Y6084846D01*
X3809793Y6075889D01*
X3833001Y6072833D01*
X3856208Y6075889D01*
X3877834Y6084846D01*
X3896405Y6099096D01*
X3910655Y6117667D01*
X3919612Y6139293D01*
X3922668Y6162500D01*
X3919612Y6185708D01*
X3910655Y6207334D01*
X3896405Y6225904D01*
X3877834Y6240154D01*
X3856208Y6249112D01*
X3833001Y6252167D01*
D02*
G37*
G36*
X3325001D02*
X3301793Y6249112D01*
X3280167Y6240154D01*
X3261596Y6225904D01*
X3247347Y6207334D01*
X3238389Y6185708D01*
X3235334Y6162500D01*
X3238389Y6139293D01*
X3247347Y6117667D01*
X3261596Y6099096D01*
X3280167Y6084846D01*
X3301793Y6075889D01*
X3325001Y6072833D01*
X3348208Y6075889D01*
X3369834Y6084846D01*
X3388405Y6099096D01*
X3402655Y6117667D01*
X3411612Y6139293D01*
X3414668Y6162500D01*
X3411612Y6185708D01*
X3402655Y6207334D01*
X3388405Y6225904D01*
X3369834Y6240154D01*
X3348208Y6249112D01*
X3325001Y6252167D01*
D02*
G37*
G36*
X3771906Y5997902D02*
Y5938899D01*
X3830905D01*
X3823106Y5957728D01*
X3809048Y5976048D01*
X3790728Y5990106D01*
X3771906Y5997902D01*
D02*
G37*
G36*
X3517906D02*
Y5938899D01*
X3576905D01*
X3569106Y5957728D01*
X3555048Y5976048D01*
X3536728Y5990106D01*
X3517906Y5997902D01*
D02*
G37*
G36*
X3467106Y5997907D02*
X3448272Y5990106D01*
X3429952Y5976048D01*
X3415894Y5957728D01*
X3408095Y5938899D01*
X3467106D01*
Y5997907D01*
D02*
G37*
G36*
X3721106D02*
X3702272Y5990106D01*
X3683952Y5976048D01*
X3669894Y5957728D01*
X3662095Y5938899D01*
X3721106D01*
Y5997907D01*
D02*
G37*
G36*
X3830904Y5888099D02*
X3771906D01*
Y5829098D01*
X3790728Y5836894D01*
X3809048Y5850952D01*
X3823106Y5869272D01*
X3830904Y5888099D01*
D02*
G37*
G36*
X3576904D02*
X3517906D01*
Y5829098D01*
X3536728Y5836894D01*
X3555048Y5850952D01*
X3569106Y5869272D01*
X3576904Y5888099D01*
D02*
G37*
G36*
X3467106D02*
X3408096D01*
X3415894Y5869272D01*
X3429952Y5850952D01*
X3448272Y5836894D01*
X3467106Y5829093D01*
Y5888099D01*
D02*
G37*
G36*
X3721106D02*
X3662096D01*
X3669894Y5869272D01*
X3683952Y5850952D01*
X3702272Y5836894D01*
X3721106Y5829093D01*
Y5888099D01*
D02*
G37*
G36*
X720294Y4433693D02*
X703633Y4430380D01*
X689509Y4420942D01*
X680072Y4406818D01*
X676758Y4390157D01*
X679423Y4376755D01*
X649416Y4346748D01*
X645206Y4340446D01*
X643727Y4333013D01*
Y3886000D01*
X623820Y3866093D01*
X568808D01*
X568807Y3866093D01*
X561374Y3864614D01*
X555073Y3860404D01*
X555072Y3860403D01*
X339951Y3645282D01*
X268377D01*
X260785Y3656644D01*
X246661Y3666082D01*
X230000Y3669396D01*
X213339Y3666082D01*
X199215Y3656644D01*
X189778Y3642520D01*
X186464Y3625859D01*
X189129Y3612457D01*
X129266Y3552593D01*
X125055Y3546292D01*
X123577Y3538859D01*
Y3469878D01*
X120758Y3469507D01*
X100032Y3460922D01*
X82235Y3447265D01*
X68578Y3429467D01*
X59993Y3408741D01*
X57065Y3386500D01*
Y3381500D01*
X59993Y3359258D01*
X68578Y3338532D01*
X82235Y3320735D01*
X100032Y3307078D01*
X120758Y3298493D01*
X143000Y3295565D01*
X165241Y3298493D01*
X185968Y3307078D01*
X203765Y3320735D01*
X217422Y3338532D01*
X226007Y3359258D01*
X228935Y3381500D01*
Y3386500D01*
X226007Y3408741D01*
X217422Y3429467D01*
X203765Y3447265D01*
X185968Y3460922D01*
X165241Y3469507D01*
X162423Y3469878D01*
Y3530814D01*
X216598Y3584989D01*
X230000Y3582323D01*
X246661Y3585637D01*
X260785Y3595074D01*
X268377Y3606436D01*
X347996D01*
X355429Y3607915D01*
X361731Y3612125D01*
X576852Y3827247D01*
X631865D01*
X639298Y3828725D01*
X645600Y3832935D01*
X676885Y3864220D01*
X681095Y3870522D01*
X682573Y3877955D01*
Y4324968D01*
X706892Y4349286D01*
X720294Y4346621D01*
X736955Y4349935D01*
X751079Y4359372D01*
X760516Y4373496D01*
X763830Y4390157D01*
X760516Y4406818D01*
X751079Y4420942D01*
X736955Y4430380D01*
X720294Y4433693D01*
D02*
G37*
G36*
X3339180Y4192532D02*
X3322520Y4189218D01*
X3308395Y4179781D01*
X3298958Y4165657D01*
X3295644Y4148996D01*
X3298958Y4132335D01*
X3308395Y4118211D01*
X3313283Y4114946D01*
Y3613831D01*
X3315254Y3603921D01*
X3320868Y3595519D01*
X3504209Y3412178D01*
Y3380950D01*
X3497653Y3371140D01*
X3495352Y3359568D01*
X3323124Y3187340D01*
X3315826Y3176418D01*
X3313264Y3163534D01*
Y2396457D01*
X3315826Y2383573D01*
X3323124Y2372651D01*
X3384985Y2310790D01*
Y1883200D01*
X3387548Y1870316D01*
X3389644Y1867179D01*
X3350564Y1828099D01*
X3338992Y1825797D01*
X3324867Y1816360D01*
X3315430Y1802235D01*
X3312116Y1785575D01*
X3315430Y1768914D01*
X3324867Y1754790D01*
X3338992Y1745352D01*
X3355652Y1742038D01*
X3372313Y1745352D01*
X3386437Y1754790D01*
X3395875Y1768914D01*
X3398177Y1780487D01*
X3449910Y1832220D01*
X4048408D01*
X4058219Y1825665D01*
X4074879Y1822351D01*
X4091540Y1825665D01*
X4100927Y1831937D01*
X4164382D01*
X4186933Y1809386D01*
X4197855Y1802088D01*
X4210739Y1799525D01*
X4432728D01*
X4446340Y1790430D01*
X4463001Y1787116D01*
X4479662Y1790430D01*
X4493786Y1799868D01*
X4503223Y1813992D01*
X4506156Y1828735D01*
X4842774Y2165353D01*
X4850072Y2176275D01*
X4852635Y2189159D01*
Y2412027D01*
X4850072Y2424911D01*
X4842774Y2435833D01*
X4799907Y2478700D01*
X4861004Y2539797D01*
X4868302Y2550720D01*
X4870865Y2563603D01*
Y3025670D01*
X4927189Y3081994D01*
X4938762Y3084296D01*
X4952886Y3093734D01*
X4962323Y3107858D01*
X4965637Y3124519D01*
X4962323Y3141179D01*
X4952886Y3155303D01*
X4938762Y3164741D01*
X4922101Y3168055D01*
X4905440Y3164741D01*
X4891316Y3155303D01*
X4881878Y3141179D01*
X4879576Y3129606D01*
X4813391Y3063421D01*
X4806094Y3052499D01*
X4803531Y3039615D01*
Y2577549D01*
X4747206Y2521225D01*
X4735634Y2518923D01*
X4721509Y2509485D01*
X4712072Y2495361D01*
X4708758Y2478700D01*
X4712072Y2462040D01*
X4721509Y2447915D01*
X4735634Y2438478D01*
X4747207Y2436176D01*
X4785301Y2398082D01*
Y2203105D01*
X4454742Y1872546D01*
X4446340Y1870875D01*
X4440331Y1866859D01*
X4224684D01*
X4202133Y1889410D01*
X4191211Y1896708D01*
X4178327Y1899271D01*
X4101775D01*
X4091540Y1906110D01*
X4074879Y1909424D01*
X4058219Y1906110D01*
X4048408Y1899554D01*
X3452319D01*
Y2324735D01*
X3449756Y2337619D01*
X3442458Y2348541D01*
X3380598Y2410402D01*
Y3149589D01*
X3542963Y3311955D01*
X3554536Y3314257D01*
X3568661Y3323694D01*
X3578098Y3337818D01*
X3581412Y3354479D01*
X3578098Y3371140D01*
X3571543Y3380950D01*
Y3401190D01*
X3668086Y3497733D01*
X4040095D01*
X4049906Y3491177D01*
X4066567Y3487863D01*
X4083228Y3491177D01*
X4097352Y3500615D01*
X4106789Y3514739D01*
X4110103Y3531400D01*
X4106789Y3548060D01*
X4097352Y3562185D01*
X4083228Y3571622D01*
X4066567Y3574936D01*
X4049906Y3571622D01*
X4040096Y3565067D01*
X3653939D01*
X3641055Y3562504D01*
X3630133Y3555206D01*
X3629727Y3554599D01*
X3532382Y3457254D01*
X3365078Y3624558D01*
Y4114946D01*
X3369965Y4118211D01*
X3379403Y4132335D01*
X3382717Y4148996D01*
X3379403Y4165657D01*
X3369965Y4179781D01*
X3355841Y4189218D01*
X3339180Y4192532D01*
D02*
G37*
G36*
X2819395Y3518191D02*
Y3459187D01*
X2878403D01*
X2870606Y3478012D01*
X2856548Y3496332D01*
X2838228Y3510390D01*
X2819395Y3518191D01*
D02*
G37*
G36*
X2768595Y3518187D02*
X2749772Y3510390D01*
X2731452Y3496332D01*
X2717394Y3478012D01*
X2709597Y3459187D01*
X2768595D01*
Y3518187D01*
D02*
G37*
G36*
X2563494Y3518189D02*
Y3459184D01*
X2622499D01*
X2614700Y3478012D01*
X2600643Y3496332D01*
X2582322Y3510390D01*
X2563494Y3518189D01*
D02*
G37*
G36*
X2512694D02*
X2493866Y3510390D01*
X2475546Y3496332D01*
X2461489Y3478012D01*
X2453690Y3459184D01*
X2512694D01*
Y3518189D01*
D02*
G37*
G36*
X1040000Y4443696D02*
X1023339Y4440382D01*
X1009215Y4430945D01*
X999778Y4416820D01*
X996464Y4400160D01*
X999778Y4383499D01*
X1009215Y4369375D01*
X1020577Y4361783D01*
Y3900081D01*
X523919Y3403423D01*
X480707D01*
X480007Y3408741D01*
X471422Y3429467D01*
X457765Y3447265D01*
X439968Y3460922D01*
X419241Y3469507D01*
X397000Y3472435D01*
X374758Y3469507D01*
X354032Y3460922D01*
X336235Y3447265D01*
X322578Y3429467D01*
X313993Y3408741D01*
X311065Y3386500D01*
Y3381500D01*
X313993Y3359258D01*
X322578Y3338532D01*
X336235Y3320735D01*
X354032Y3307078D01*
X374758Y3298493D01*
X397000Y3295565D01*
X419241Y3298493D01*
X439968Y3307078D01*
X457765Y3320735D01*
X471422Y3338532D01*
X480007Y3359258D01*
X480707Y3364577D01*
X531964D01*
X539397Y3366055D01*
X545699Y3370266D01*
X1053734Y3878301D01*
X1057945Y3884602D01*
X1059423Y3892035D01*
Y4361783D01*
X1070785Y4369375D01*
X1080222Y4383499D01*
X1083536Y4400160D01*
X1080222Y4416820D01*
X1070785Y4430945D01*
X1056661Y4440382D01*
X1040000Y4443696D01*
D02*
G37*
G36*
X2768595Y3408387D02*
X2709594D01*
X2717394Y3389556D01*
X2731452Y3371236D01*
X2749772Y3357178D01*
X2768595Y3349381D01*
Y3408387D01*
D02*
G37*
G36*
X2622499Y3408384D02*
X2563494D01*
Y3349379D01*
X2582322Y3357178D01*
X2600643Y3371236D01*
X2614700Y3389556D01*
X2622499Y3408384D01*
D02*
G37*
G36*
X2512694D02*
X2453690D01*
X2461489Y3389556D01*
X2475546Y3371236D01*
X2493866Y3357178D01*
X2512694Y3349379D01*
Y3408384D01*
D02*
G37*
G36*
X2878406Y3408387D02*
X2819395D01*
Y3349377D01*
X2838228Y3357178D01*
X2856548Y3371236D01*
X2870606Y3389556D01*
X2878406Y3408387D01*
D02*
G37*
G36*
X2819400Y3264189D02*
Y3205184D01*
X2878405D01*
X2870606Y3224012D01*
X2856548Y3242332D01*
X2838228Y3256390D01*
X2819400Y3264189D01*
D02*
G37*
G36*
X2768600D02*
X2749772Y3256390D01*
X2731452Y3242332D01*
X2717394Y3224012D01*
X2709595Y3205184D01*
X2768600D01*
Y3264189D01*
D02*
G37*
G36*
X2563494D02*
Y3205184D01*
X2622499D01*
X2614700Y3224012D01*
X2600643Y3242332D01*
X2582322Y3256390D01*
X2563494Y3264189D01*
D02*
G37*
G36*
X2512694D02*
X2493866Y3256390D01*
X2475546Y3242332D01*
X2461489Y3224012D01*
X2453690Y3205184D01*
X2512694D01*
Y3264189D01*
D02*
G37*
G36*
X1040000Y4563536D02*
X1023339Y4560222D01*
X1009215Y4550785D01*
X999778Y4536660D01*
X996464Y4520000D01*
X999778Y4503339D01*
X1009215Y4489215D01*
X1023339Y4479777D01*
X1040000Y4476463D01*
X1053403Y4479129D01*
X1110577Y4421955D01*
Y3871045D01*
X648763Y3409232D01*
X648762Y3409231D01*
X443637Y3204106D01*
X439968Y3206922D01*
X419241Y3215507D01*
X397000Y3218435D01*
X374758Y3215507D01*
X354032Y3206922D01*
X336235Y3193265D01*
X322578Y3175467D01*
X313993Y3154741D01*
X311065Y3132500D01*
Y3127500D01*
X313993Y3105258D01*
X322578Y3084532D01*
X336235Y3066735D01*
X354032Y3053078D01*
X374758Y3044493D01*
X397000Y3041565D01*
X419241Y3044493D01*
X439968Y3053078D01*
X457765Y3066735D01*
X471422Y3084532D01*
X480007Y3105258D01*
X482935Y3127500D01*
Y3132500D01*
X480007Y3154741D01*
X471422Y3175467D01*
X470777Y3176308D01*
X676230Y3381762D01*
X676231Y3381763D01*
X1143734Y3849265D01*
X1143734Y3849266D01*
X1147945Y3855567D01*
X1149423Y3863000D01*
X1149423Y3863001D01*
Y4430001D01*
X1147945Y4437434D01*
X1143734Y4443735D01*
X1080871Y4506599D01*
X1083536Y4520000D01*
X1080222Y4536660D01*
X1070785Y4550785D01*
X1056661Y4560222D01*
X1040000Y4563536D01*
D02*
G37*
G36*
X168407Y3214196D02*
Y3155401D01*
X225734D01*
X217422Y3175467D01*
X203765Y3193265D01*
X185968Y3206922D01*
X168407Y3214196D01*
D02*
G37*
G36*
X117607Y3214201D02*
X100032Y3206922D01*
X82235Y3193265D01*
X68578Y3175467D01*
X60266Y3155401D01*
X117607D01*
Y3214201D01*
D02*
G37*
G36*
X2878405Y3154384D02*
X2819400D01*
Y3095379D01*
X2838228Y3103178D01*
X2856548Y3117236D01*
X2870606Y3135556D01*
X2878405Y3154384D01*
D02*
G37*
G36*
X2768600D02*
X2709595D01*
X2717394Y3135556D01*
X2731452Y3117236D01*
X2749772Y3103178D01*
X2768600Y3095379D01*
Y3154384D01*
D02*
G37*
G36*
X2622499D02*
X2563494D01*
Y3095379D01*
X2582322Y3103178D01*
X2600643Y3117236D01*
X2614700Y3135556D01*
X2622499Y3154384D01*
D02*
G37*
G36*
X2512694D02*
X2453690D01*
X2461489Y3135556D01*
X2475546Y3117236D01*
X2493866Y3103178D01*
X2512694Y3095379D01*
Y3154384D01*
D02*
G37*
G36*
X225735Y3104601D02*
X168407D01*
Y3045804D01*
X185968Y3053078D01*
X203765Y3066735D01*
X217422Y3084532D01*
X225735Y3104601D01*
D02*
G37*
G36*
X117607D02*
X60265D01*
X68578Y3084532D01*
X82235Y3066735D01*
X100032Y3053078D01*
X117607Y3045798D01*
Y3104601D01*
D02*
G37*
G36*
X2819395Y3010191D02*
Y2951187D01*
X2878403D01*
X2870606Y2970012D01*
X2856548Y2988332D01*
X2838228Y3002390D01*
X2819395Y3010191D01*
D02*
G37*
G36*
X2768595Y3010187D02*
X2749772Y3002390D01*
X2731452Y2988332D01*
X2717394Y2970012D01*
X2709597Y2951187D01*
X2768595D01*
Y3010187D01*
D02*
G37*
G36*
X2563494Y3010189D02*
Y2951184D01*
X2622499D01*
X2614700Y2970012D01*
X2600643Y2988332D01*
X2582322Y3002390D01*
X2563494Y3010189D01*
D02*
G37*
G36*
X2512694D02*
X2493866Y3002390D01*
X2475546Y2988332D01*
X2461489Y2970012D01*
X2453690Y2951184D01*
X2512694D01*
Y3010189D01*
D02*
G37*
G36*
X2768595Y2900387D02*
X2709594D01*
X2717394Y2881556D01*
X2731452Y2863236D01*
X2749772Y2849178D01*
X2768595Y2841381D01*
Y2900387D01*
D02*
G37*
G36*
X2622499Y2900384D02*
X2563494D01*
Y2841379D01*
X2582322Y2849178D01*
X2600643Y2863236D01*
X2614700Y2881556D01*
X2622499Y2900384D01*
D02*
G37*
G36*
X2512694D02*
X2453690D01*
X2461489Y2881556D01*
X2475546Y2863236D01*
X2493866Y2849178D01*
X2512694Y2841379D01*
Y2900384D01*
D02*
G37*
G36*
X2878406Y2900387D02*
X2819395D01*
Y2841377D01*
X2838228Y2849178D01*
X2856548Y2863236D01*
X2870606Y2881556D01*
X2878406Y2900387D01*
D02*
G37*
G36*
X451375Y2964304D02*
X342625D01*
X330598Y2961911D01*
X320401Y2955098D01*
X313588Y2944902D01*
X311196Y2932875D01*
Y2819125D01*
X313588Y2807098D01*
X320401Y2796901D01*
X330598Y2790088D01*
X342625Y2787696D01*
X451375D01*
X463402Y2790088D01*
X473599Y2796901D01*
X480412Y2807098D01*
X482804Y2819125D01*
Y2932875D01*
X480412Y2944902D01*
X473599Y2955098D01*
X463402Y2961911D01*
X451375Y2964304D01*
D02*
G37*
G36*
X2563493Y2756189D02*
Y2697191D01*
X2622496D01*
X2614700Y2716012D01*
X2600643Y2734332D01*
X2582322Y2748390D01*
X2563493Y2756189D01*
D02*
G37*
G36*
X2512693Y2756188D02*
X2493866Y2748390D01*
X2475546Y2734332D01*
X2461489Y2716012D01*
X2453692Y2697191D01*
X2512693D01*
Y2756188D01*
D02*
G37*
G36*
X2819395Y2756191D02*
Y2697187D01*
X2878403D01*
X2870606Y2716012D01*
X2856548Y2734332D01*
X2838228Y2748390D01*
X2819395Y2756191D01*
D02*
G37*
G36*
X2768595Y2756187D02*
X2749772Y2748390D01*
X2731452Y2734332D01*
X2717394Y2716012D01*
X2709597Y2697187D01*
X2768595D01*
Y2756187D01*
D02*
G37*
G36*
Y2646387D02*
X2709594D01*
X2717394Y2627556D01*
X2731452Y2609236D01*
X2749772Y2595178D01*
X2768595Y2587381D01*
Y2646387D01*
D02*
G37*
G36*
X2512693Y2646391D02*
X2453687D01*
X2461489Y2627556D01*
X2475546Y2609236D01*
X2493866Y2595178D01*
X2512693Y2587380D01*
Y2646391D01*
D02*
G37*
G36*
X2622502D02*
X2563493D01*
Y2587379D01*
X2582322Y2595178D01*
X2600643Y2609236D01*
X2614700Y2627556D01*
X2622502Y2646391D01*
D02*
G37*
G36*
X2878406Y2646387D02*
X2819395D01*
Y2587377D01*
X2838228Y2595178D01*
X2856548Y2609236D01*
X2870606Y2627556D01*
X2878406Y2646387D01*
D02*
G37*
G36*
X913200Y2611960D02*
X863600D01*
Y2511082D01*
X1036136D01*
X1035177Y2518364D01*
X1022562Y2548820D01*
X1002494Y2574974D01*
X976340Y2595042D01*
X945884Y2607657D01*
X913200Y2611960D01*
D02*
G37*
G36*
X812800D02*
X763200D01*
X730516Y2607657D01*
X700060Y2595042D01*
X673906Y2574974D01*
X653838Y2548820D01*
X641223Y2518364D01*
X640264Y2511082D01*
X812800D01*
Y2611960D01*
D02*
G37*
G36*
X3741001Y3070216D02*
X3724340Y3066902D01*
X3710216Y3057465D01*
X3700778Y3043341D01*
X3697465Y3026680D01*
X3700778Y3010019D01*
X3710216Y2995895D01*
X3717693Y2990899D01*
Y2949236D01*
X3669151Y2900694D01*
X3664099Y2893133D01*
X3662325Y2884213D01*
Y2487368D01*
X3555065D01*
X3550069Y2494845D01*
X3535945Y2504283D01*
X3519285Y2507597D01*
X3502624Y2504283D01*
X3488500Y2494845D01*
X3479062Y2480721D01*
X3475748Y2464060D01*
X3479062Y2447400D01*
X3488500Y2433276D01*
X3502624Y2423838D01*
X3519285Y2420524D01*
X3535945Y2423838D01*
X3550069Y2433276D01*
X3555065Y2440753D01*
X4608227D01*
X4652399Y2396580D01*
X4650645Y2387761D01*
X4653959Y2371100D01*
X4663396Y2356976D01*
X4677520Y2347538D01*
X4694181Y2344224D01*
X4710842Y2347538D01*
X4724966Y2356976D01*
X4734404Y2371100D01*
X4737717Y2387761D01*
X4734404Y2404421D01*
X4724966Y2418545D01*
X4710842Y2427983D01*
X4694181Y2431297D01*
X4685361Y2429543D01*
X4650843Y2464060D01*
X4689482Y2502699D01*
X4694534Y2510260D01*
X4696309Y2519180D01*
Y2611222D01*
X4706326Y2617916D01*
X4715763Y2632040D01*
X4719077Y2648700D01*
X4715763Y2665361D01*
X4706326Y2679485D01*
X4692201Y2688923D01*
X4675541Y2692237D01*
X4658880Y2688923D01*
X4644756Y2679485D01*
X4635318Y2665361D01*
X4632004Y2648700D01*
X4635318Y2632040D01*
X4644756Y2617916D01*
X4649693Y2614617D01*
Y2528834D01*
X4608227Y2487368D01*
X3708940D01*
Y2874559D01*
X3757482Y2923101D01*
X3762535Y2930662D01*
X3764309Y2939582D01*
Y2990899D01*
X3771786Y2995895D01*
X3781223Y3010019D01*
X3784537Y3026680D01*
X3781223Y3043341D01*
X3771786Y3057465D01*
X3757662Y3066902D01*
X3741001Y3070216D01*
D02*
G37*
G36*
X1036136Y2460282D02*
X863600D01*
Y2359400D01*
X913200D01*
X945884Y2363703D01*
X976340Y2376318D01*
X1002494Y2396387D01*
X1022562Y2422540D01*
X1035177Y2452996D01*
X1036136Y2460282D01*
D02*
G37*
G36*
X812800D02*
X640264D01*
X641223Y2452996D01*
X653838Y2422540D01*
X673906Y2396387D01*
X700060Y2376318D01*
X730516Y2363703D01*
X763200Y2359400D01*
X812800D01*
Y2460282D01*
D02*
G37*
G36*
X875473Y3528108D02*
X858812Y3524794D01*
X844688Y3515356D01*
X835251Y3501232D01*
X831937Y3484572D01*
X835251Y3467911D01*
X841806Y3458100D01*
Y3276518D01*
X835251Y3266707D01*
X831937Y3250046D01*
X835251Y3233386D01*
X841806Y3223575D01*
Y2937217D01*
X844369Y2924333D01*
X851667Y2913411D01*
X1157222Y2607855D01*
Y2109965D01*
X737792D01*
X176667Y2671090D01*
Y2795226D01*
X185968Y2799078D01*
X203765Y2812735D01*
X217422Y2830532D01*
X226007Y2851258D01*
X228935Y2873500D01*
Y2878500D01*
X226007Y2900741D01*
X217422Y2921467D01*
X203765Y2939265D01*
X185968Y2952922D01*
X165241Y2961507D01*
X143000Y2964435D01*
X120758Y2961507D01*
X100032Y2952922D01*
X82235Y2939265D01*
X68578Y2921467D01*
X59993Y2900741D01*
X57065Y2878500D01*
Y2873500D01*
X59993Y2851258D01*
X68578Y2830532D01*
X82235Y2812735D01*
X100032Y2799078D01*
X109333Y2795226D01*
Y2657144D01*
X111896Y2644260D01*
X119194Y2633338D01*
X700040Y2052492D01*
X710963Y2045194D01*
X723846Y2042631D01*
X1157222D01*
Y1195467D01*
X1159785Y1182583D01*
X1167083Y1171661D01*
X1453530Y885214D01*
X1464452Y877915D01*
X1477336Y875353D01*
X2485349D01*
X2653307Y707395D01*
X2664229Y700097D01*
X2677113Y697534D01*
X2893129D01*
X2902940Y690979D01*
X2919600Y687665D01*
X2936261Y690979D01*
X2950385Y700416D01*
X2959823Y714541D01*
X2963137Y731201D01*
X2959823Y747862D01*
X2950385Y761986D01*
X2936261Y771424D01*
X2919600Y774738D01*
X2902940Y771424D01*
X2893129Y764868D01*
X2691058D01*
X2523100Y932826D01*
X2512178Y940124D01*
X2499294Y942687D01*
X1491281D01*
X1224556Y1209412D01*
Y2076298D01*
Y2621801D01*
X1221993Y2634684D01*
X1214695Y2645607D01*
X909140Y2951162D01*
Y3223575D01*
X915695Y3233386D01*
X919009Y3250046D01*
X915695Y3266707D01*
X909140Y3276518D01*
Y3458100D01*
X915695Y3467911D01*
X919009Y3484572D01*
X915695Y3501232D01*
X906258Y3515356D01*
X892134Y3524794D01*
X875473Y3528108D01*
D02*
G37*
G36*
X1588200Y2297108D02*
X1563736Y2292242D01*
X1542996Y2278384D01*
X1529138Y2257644D01*
X1524272Y2233180D01*
Y2163180D01*
X1529138Y2138716D01*
X1542996Y2117976D01*
X1563736Y2104118D01*
X1588200Y2099252D01*
X1612664Y2104118D01*
X1633404Y2117976D01*
X1647262Y2138716D01*
X1652128Y2163180D01*
Y2233180D01*
X1647262Y2257644D01*
X1633404Y2278384D01*
X1612664Y2292242D01*
X1588200Y2297108D01*
D02*
G37*
G36*
X138200D02*
X113736Y2292242D01*
X92996Y2278384D01*
X79138Y2257644D01*
X74272Y2233180D01*
Y2163180D01*
X79138Y2138716D01*
X92996Y2117976D01*
X113736Y2104118D01*
X138200Y2099252D01*
X162664Y2104118D01*
X183404Y2117976D01*
X197262Y2138716D01*
X202128Y2163180D01*
Y2233180D01*
X197262Y2257644D01*
X183404Y2278384D01*
X162664Y2292242D01*
X138200Y2297108D01*
D02*
G37*
G36*
X1615198Y2040549D02*
Y1975174D01*
X1652128D01*
Y1983180D01*
X1647262Y2007644D01*
X1633404Y2028384D01*
X1615198Y2040549D01*
D02*
G37*
G36*
X1561199Y2040547D02*
X1542996Y2028384D01*
X1529138Y2007644D01*
X1524272Y1983180D01*
Y1975174D01*
X1561199D01*
Y2040547D01*
D02*
G37*
G36*
X4805709Y1915057D02*
Y1856052D01*
X4864714D01*
X4856915Y1874881D01*
X4842857Y1893201D01*
X4824537Y1907258D01*
X4805709Y1915057D01*
D02*
G37*
G36*
X4754909D02*
X4736081Y1907258D01*
X4717761Y1893201D01*
X4703704Y1874881D01*
X4695905Y1856052D01*
X4754909D01*
Y1915057D01*
D02*
G37*
G36*
X1561199Y1921174D02*
X1524272D01*
Y1913180D01*
X1529138Y1888716D01*
X1542996Y1867976D01*
X1561199Y1855813D01*
Y1921174D01*
D02*
G37*
G36*
X1652128D02*
X1615198D01*
Y1855811D01*
X1633404Y1867976D01*
X1647262Y1888716D01*
X1652128Y1913180D01*
Y1921174D01*
D02*
G37*
G36*
X4864714Y1805252D02*
X4805709D01*
Y1746248D01*
X4824537Y1754047D01*
X4842857Y1768104D01*
X4856915Y1786424D01*
X4864714Y1805252D01*
D02*
G37*
G36*
X4754909D02*
X4695905D01*
X4703704Y1786424D01*
X4717761Y1768104D01*
X4736081Y1754047D01*
X4754909Y1746248D01*
Y1805252D01*
D02*
G37*
G36*
X165203Y1790546D02*
Y1725184D01*
X202128D01*
Y1733180D01*
X197262Y1757644D01*
X183404Y1778384D01*
X165203Y1790546D01*
D02*
G37*
G36*
X111203Y1790550D02*
X92996Y1778384D01*
X79138Y1757644D01*
X74272Y1733180D01*
Y1725184D01*
X111203D01*
Y1790550D01*
D02*
G37*
G36*
X202128Y1671184D02*
X165203D01*
Y1605814D01*
X183404Y1617976D01*
X197262Y1638716D01*
X202128Y1663180D01*
Y1671184D01*
D02*
G37*
G36*
X111203D02*
X74272D01*
Y1663180D01*
X79138Y1638716D01*
X92996Y1617976D01*
X111203Y1605810D01*
Y1671184D01*
D02*
G37*
G36*
X4805709Y1661057D02*
Y1602052D01*
X4864714D01*
X4856915Y1620881D01*
X4842857Y1639201D01*
X4824537Y1653258D01*
X4805709Y1661057D01*
D02*
G37*
G36*
X4754909D02*
X4736081Y1653258D01*
X4717761Y1639201D01*
X4703704Y1620881D01*
X4695905Y1602052D01*
X4754909D01*
Y1661057D01*
D02*
G37*
G36*
X1588200Y1797108D02*
X1563736Y1792242D01*
X1542996Y1778384D01*
X1529138Y1757644D01*
X1524272Y1733180D01*
Y1663180D01*
X1529138Y1638716D01*
X1542996Y1617976D01*
X1563736Y1604118D01*
X1588200Y1599252D01*
X1612664Y1604118D01*
X1633404Y1617976D01*
X1647262Y1638716D01*
X1652128Y1663180D01*
Y1733180D01*
X1647262Y1757644D01*
X1633404Y1778384D01*
X1612664Y1792242D01*
X1588200Y1797108D01*
D02*
G37*
G36*
X4864714Y1551252D02*
X4805709D01*
Y1492248D01*
X4824537Y1500047D01*
X4842857Y1514104D01*
X4856915Y1532424D01*
X4864714Y1551252D01*
D02*
G37*
G36*
X4754909D02*
X4695905D01*
X4703704Y1532424D01*
X4717761Y1514104D01*
X4736081Y1500047D01*
X4754909Y1492248D01*
Y1551252D01*
D02*
G37*
G36*
X913200Y1536960D02*
X863599D01*
Y1436081D01*
X1036136D01*
X1035177Y1443364D01*
X1022562Y1473820D01*
X1002494Y1499973D01*
X976340Y1520042D01*
X945884Y1532657D01*
X913200Y1536960D01*
D02*
G37*
G36*
X812799D02*
X763200D01*
X730516Y1532657D01*
X700060Y1520042D01*
X673906Y1499973D01*
X653838Y1473820D01*
X641223Y1443364D01*
X640264Y1436081D01*
X812799D01*
Y1536960D01*
D02*
G37*
G36*
X1036136Y1385281D02*
X863599D01*
Y1284400D01*
X913200D01*
X945884Y1288703D01*
X976340Y1301318D01*
X1002494Y1321386D01*
X1022562Y1347540D01*
X1035177Y1377996D01*
X1036136Y1385281D01*
D02*
G37*
G36*
X812799D02*
X640264D01*
X641223Y1377996D01*
X653838Y1347540D01*
X673906Y1321386D01*
X700060Y1301318D01*
X730516Y1288703D01*
X763200Y1284400D01*
X812799D01*
Y1385281D01*
D02*
G37*
G36*
X741001Y1252214D02*
X631001D01*
X606537Y1247348D01*
X585797Y1233490D01*
X571939Y1212750D01*
X567073Y1188286D01*
X571939Y1163821D01*
X585797Y1143082D01*
X606537Y1129224D01*
X631001Y1124357D01*
X741001D01*
X765465Y1129224D01*
X786205Y1143082D01*
X800063Y1163821D01*
X804929Y1188286D01*
X800063Y1212750D01*
X786205Y1233490D01*
X765465Y1247348D01*
X741001Y1252214D01*
D02*
G37*
G36*
X307993D02*
X227993D01*
X203529Y1247348D01*
X182789Y1233490D01*
X168931Y1212750D01*
X164065Y1188286D01*
X168931Y1163821D01*
X182789Y1143082D01*
X203529Y1129224D01*
X227993Y1124357D01*
X307993D01*
X332457Y1129224D01*
X353197Y1143082D01*
X367055Y1163821D01*
X371921Y1188286D01*
X367055Y1212750D01*
X353197Y1233490D01*
X332457Y1247348D01*
X307993Y1252214D01*
D02*
G37*
G36*
X636009Y1092359D02*
X618373Y1088851D01*
X603422Y1078861D01*
X593432Y1063910D01*
X589924Y1046274D01*
X593432Y1028638D01*
X603422Y1013686D01*
X618373Y1003696D01*
X636009Y1000188D01*
X653646Y1003696D01*
X668597Y1013686D01*
X678587Y1028638D01*
X682095Y1046274D01*
X678587Y1063910D01*
X668597Y1078861D01*
X653646Y1088851D01*
X636009Y1092359D01*
D02*
G37*
G36*
X5199382Y1173037D02*
X5176488Y1170023D01*
X5155154Y1161186D01*
X5136834Y1147128D01*
X5122777Y1128808D01*
X5113940Y1107474D01*
X5110926Y1084580D01*
X5113940Y1061686D01*
X5122777Y1040352D01*
X5136834Y1022032D01*
X5155154Y1007974D01*
X5176488Y999137D01*
X5199382Y996123D01*
X5222277Y999137D01*
X5243611Y1007974D01*
X5261931Y1022032D01*
X5275988Y1040352D01*
X5284825Y1061686D01*
X5287839Y1084580D01*
X5284825Y1107474D01*
X5275988Y1128808D01*
X5261931Y1147128D01*
X5243611Y1161186D01*
X5222277Y1170023D01*
X5199382Y1173037D01*
D02*
G37*
G36*
X4945382D02*
X4922488Y1170023D01*
X4901154Y1161186D01*
X4882834Y1147128D01*
X4868777Y1128808D01*
X4859940Y1107474D01*
X4856926Y1084580D01*
X4859940Y1061686D01*
X4868777Y1040352D01*
X4882834Y1022032D01*
X4901154Y1007974D01*
X4922488Y999137D01*
X4945382Y996123D01*
X4968277Y999137D01*
X4989611Y1007974D01*
X5007931Y1022032D01*
X5021988Y1040352D01*
X5030825Y1061686D01*
X5033839Y1084580D01*
X5030825Y1107474D01*
X5021988Y1128808D01*
X5007931Y1147128D01*
X4989611Y1161186D01*
X4968277Y1170023D01*
X4945382Y1173037D01*
D02*
G37*
G36*
X2150187Y4082136D02*
X2133527Y4078822D01*
X2119403Y4069385D01*
X2109965Y4055261D01*
X2106651Y4038600D01*
X2109965Y4021939D01*
X2119403Y4007815D01*
X2130764Y4000223D01*
Y3590147D01*
X2132243Y3582714D01*
X2136453Y3576413D01*
X2309045Y3403821D01*
Y2280934D01*
X2310523Y2273501D01*
X2314733Y2267200D01*
X3741974Y839959D01*
X3748275Y835749D01*
X3755709Y834270D01*
X4069043D01*
X4076635Y822908D01*
X4090759Y813471D01*
X4107420Y810157D01*
X4124080Y813471D01*
X4138205Y822908D01*
X4147642Y837033D01*
X4150956Y853693D01*
X4147642Y870354D01*
X4138205Y884478D01*
X4124080Y893916D01*
X4107420Y897230D01*
X4090759Y893916D01*
X4076635Y884478D01*
X4069043Y873116D01*
X3763754D01*
X2347891Y2288979D01*
Y3411866D01*
X2347891Y3411867D01*
X2346412Y3419300D01*
X2342202Y3425601D01*
X2169611Y3598193D01*
Y4000223D01*
X2180972Y4007815D01*
X2190410Y4021939D01*
X2193724Y4038600D01*
X2190410Y4055261D01*
X2180972Y4069385D01*
X2166848Y4078822D01*
X2150187Y4082136D01*
D02*
G37*
G36*
X609600Y824812D02*
X592939Y821498D01*
X578815Y812061D01*
X569378Y797937D01*
X566064Y781276D01*
X569378Y764615D01*
X578815Y750491D01*
X590177Y742899D01*
Y684906D01*
X578815Y677314D01*
X569378Y663190D01*
X566064Y646529D01*
X569378Y629868D01*
X578815Y615744D01*
X592939Y606307D01*
X609600Y602993D01*
X626261Y606307D01*
X640385Y615744D01*
X649822Y629868D01*
X653136Y646529D01*
X649822Y663190D01*
X640385Y677314D01*
X629023Y684906D01*
Y742899D01*
X640385Y750491D01*
X649822Y764615D01*
X653136Y781276D01*
X649822Y797937D01*
X640385Y812061D01*
X626261Y821498D01*
X609600Y824812D01*
D02*
G37*
G36*
X636009Y513366D02*
X618373Y509858D01*
X603422Y499868D01*
X593432Y484917D01*
X589924Y467281D01*
X593432Y449645D01*
X603422Y434693D01*
X618373Y424703D01*
X636009Y421195D01*
X653646Y424703D01*
X668597Y434693D01*
X678587Y449645D01*
X682095Y467281D01*
X678587Y484917D01*
X668597Y499868D01*
X653646Y509858D01*
X636009Y513366D01*
D02*
G37*
G36*
X5199380Y525337D02*
X5176486Y522323D01*
X5155152Y513486D01*
X5136832Y499428D01*
X5122774Y481108D01*
X5113937Y459774D01*
X5110923Y436880D01*
X5113937Y413986D01*
X5122774Y392652D01*
X5136832Y374332D01*
X5155152Y360274D01*
X5176486Y351437D01*
X5199380Y348423D01*
X5222274Y351437D01*
X5243608Y360274D01*
X5261928Y374332D01*
X5275986Y392652D01*
X5284823Y413986D01*
X5287837Y436880D01*
X5284823Y459774D01*
X5275986Y481108D01*
X5261928Y499428D01*
X5243608Y513486D01*
X5222274Y522323D01*
X5199380Y525337D01*
D02*
G37*
G36*
X4945380D02*
X4922486Y522323D01*
X4901152Y513486D01*
X4882832Y499428D01*
X4868774Y481108D01*
X4859937Y459774D01*
X4856923Y436880D01*
X4859937Y413986D01*
X4868774Y392652D01*
X4882832Y374332D01*
X4901152Y360274D01*
X4922486Y351437D01*
X4945380Y348423D01*
X4968274Y351437D01*
X4989608Y360274D01*
X5007928Y374332D01*
X5021986Y392652D01*
X5030823Y413986D01*
X5033837Y436880D01*
X5030823Y459774D01*
X5021986Y481108D01*
X5007928Y499428D01*
X4989608Y513486D01*
X4968274Y522323D01*
X4945380Y525337D01*
D02*
G37*
G36*
X741001Y388208D02*
X631001D01*
X606537Y383341D01*
X585797Y369483D01*
X571939Y348744D01*
X567073Y324279D01*
X571939Y299815D01*
X585797Y279075D01*
X606537Y265217D01*
X631001Y260351D01*
X741001D01*
X765465Y265217D01*
X786205Y279075D01*
X800063Y299815D01*
X804929Y324279D01*
X800063Y348744D01*
X786205Y369483D01*
X765465Y383341D01*
X741001Y388208D01*
D02*
G37*
G36*
X307993D02*
X227993D01*
X203529Y383341D01*
X182789Y369483D01*
X168931Y348744D01*
X164065Y324279D01*
X168931Y299815D01*
X182789Y279075D01*
X203529Y265217D01*
X227993Y260351D01*
X307993D01*
X332457Y265217D01*
X353197Y279075D01*
X367055Y299815D01*
X371921Y324279D01*
X367055Y348744D01*
X353197Y369483D01*
X332457Y383341D01*
X307993Y388208D01*
D02*
G37*
%LPD*%
D36*
X1190889Y2076298D02*
Y2621801D01*
Y1195467D02*
Y2076298D01*
X723846D02*
X1190889D01*
X143000Y2657144D02*
X723846Y2076298D01*
X875473Y2937217D02*
Y3250046D01*
Y2937217D02*
X1190889Y2621801D01*
X875473Y3250046D02*
Y3484572D01*
X1190889Y1195467D02*
X1477336Y909020D01*
X143000Y2657144D02*
Y2876000D01*
X1477336Y909020D02*
X2499294D01*
X4210739Y1833192D02*
X4463001D01*
X3537876Y3354479D02*
Y3415136D01*
Y3354479D02*
Y3354479D01*
Y3415136D02*
X3653939Y3531199D01*
Y3531400D01*
X4066567D01*
X4066567Y3531400D01*
X3346931Y2396457D02*
Y3163534D01*
X3537876Y3354479D01*
X3418652Y1883200D02*
Y2324735D01*
Y1883200D02*
X3435965Y1865887D01*
X3346931Y2396457D02*
X3418652Y2324735D01*
X2677113Y731201D02*
X2919600D01*
X3355652Y1785575D02*
X3435965Y1865887D01*
X2499294Y909020D02*
X2677113Y731201D01*
X4818968Y2189159D02*
Y2412027D01*
X4752295Y2478700D02*
X4818968Y2412027D01*
X4463001Y1833192D02*
X4818968Y2189159D01*
X4074879Y1865887D02*
X4075163Y1865604D01*
X4178327D02*
X4210739Y1833192D01*
X4075163Y1865604D02*
X4178327D01*
X3435965Y1865887D02*
X4074879D01*
X4837198Y2563603D02*
Y3039615D01*
X4922101Y3124518D02*
Y3124519D01*
X4837198Y3039615D02*
X4922101Y3124518D01*
X4752294Y2478700D02*
X4837198Y2563603D01*
X4752294Y2478700D02*
X4752295D01*
D37*
X4673001Y2519180D02*
Y2648700D01*
X3685632Y2884213D02*
X3741001Y2939582D01*
X3685632Y2464060D02*
Y2884213D01*
X3741001Y2939582D02*
Y3026680D01*
X3519285Y2464060D02*
X3685632D01*
X4617881D01*
X4673001Y2519180D01*
X4617881Y2464060D02*
X4694181Y2387761D01*
D38*
X2328468Y2280934D02*
X3755709Y853693D01*
X2328468Y2280934D02*
Y3411867D01*
X2150187Y3590147D02*
Y4038600D01*
Y3590147D02*
X2328468Y3411867D01*
X3755709Y853693D02*
X4107420D01*
X609600Y646529D02*
Y781276D01*
X1130000Y3863000D02*
Y4430001D01*
X662497Y3395497D02*
X662497D01*
X1130000Y3863000D01*
X397000Y3130000D02*
X662497Y3395497D01*
X1040000Y3892035D02*
Y4400160D01*
X531964Y3384000D02*
X1040000Y3892035D01*
Y4520000D02*
X1040001D01*
X1130000Y4430001D01*
X347996Y3625859D02*
X568807Y3846670D01*
X631865D02*
X663150Y3877955D01*
X568807Y3846670D02*
X631865D01*
X663150Y3877955D02*
Y4333013D01*
X720294Y4390157D01*
X230000Y3625859D02*
X347996D01*
X397000Y3384000D02*
X531964D01*
X143000D02*
Y3538859D01*
X230000Y3625859D01*
X397000Y3130000D02*
Y3130000D01*
D39*
X3339180Y3613831D02*
Y4148996D01*
Y3613831D02*
X3537876Y3415136D01*
D42*
X636009Y1046274D02*
D03*
Y467281D02*
D03*
D43*
X686001Y1188286D02*
D03*
Y324279D02*
D03*
D44*
X267993Y1188286D02*
D03*
Y324279D02*
D03*
D45*
X2538094Y3433784D02*
D03*
Y3179784D02*
D03*
X2794000Y3433784D02*
D03*
Y3179784D02*
D03*
Y2671784D02*
D03*
Y2925784D02*
D03*
X2538094Y2671784D02*
D03*
X4945380Y436880D02*
D03*
X5199380D02*
D03*
X4945382Y1084580D02*
D03*
X5199382D02*
D03*
X3746500Y5913500D02*
D03*
X3492500D02*
D03*
X4780309Y1576652D02*
D03*
Y1830652D02*
D03*
X2538094Y2925784D02*
D03*
D46*
X1452280Y5054720D02*
D03*
X1592280D02*
D03*
Y4774720D02*
D03*
X1452280D02*
D03*
X1662280Y4704720D02*
D03*
X1522280D02*
D03*
X1382280D02*
D03*
X1732280Y5054720D02*
D03*
Y4914720D02*
D03*
Y4774720D02*
D03*
X1382280Y5124720D02*
D03*
X1662280D02*
D03*
X1522280D02*
D03*
X1312280Y5054720D02*
D03*
Y4774720D02*
D03*
Y4914720D02*
D03*
X1662280Y4984720D02*
D03*
Y4844720D02*
D03*
X1522280Y4984720D02*
D03*
Y4844720D02*
D03*
X1382280Y4984720D02*
D03*
Y4844720D02*
D03*
X1592280Y4914720D02*
D03*
X1452280D02*
D03*
D47*
X397000Y2876000D02*
D03*
D48*
Y3130000D02*
D03*
Y3384000D02*
D03*
X143000D02*
D03*
Y3130000D02*
D03*
Y2876000D02*
D03*
D49*
X838200Y1410680D02*
D03*
D50*
Y2485680D02*
D03*
D51*
X138200Y2198180D02*
D03*
Y1698180D02*
D03*
X1588200Y1948180D02*
D03*
Y2198180D02*
D03*
Y1698180D02*
D03*
D52*
X5103001Y6162500D02*
D03*
X4849001D02*
D03*
X4595001D02*
D03*
X4341001D02*
D03*
X4087001D02*
D03*
X3833001D02*
D03*
X3579001D02*
D03*
X3325001D02*
D03*
D53*
X1672384Y1600542D02*
D03*
X1889426Y1615164D02*
D03*
X1894121Y1001004D02*
D03*
X2150187Y4038600D02*
D03*
X875473Y3250046D02*
D03*
Y3484572D02*
D03*
X4107420Y853693D02*
D03*
X3537876Y3354479D02*
D03*
X4487850Y876720D02*
D03*
X4364420Y179321D02*
D03*
X4032731Y349582D02*
D03*
X3590575Y1201400D02*
D03*
X3755777Y1165873D02*
D03*
X2822500Y5665000D02*
D03*
X3741001Y3026680D02*
D03*
X3847502Y4038506D02*
D03*
X3974534Y4428893D02*
D03*
X4451160Y1163727D02*
D03*
X3368202Y933257D02*
D03*
X3832814Y2400548D02*
D03*
X3829164Y2534685D02*
D03*
X4402367Y2533937D02*
D03*
X4369294Y2798552D02*
D03*
X4653242Y2806841D02*
D03*
X4451322Y2914311D02*
D03*
X4493718Y3035630D02*
D03*
X3355652Y1785575D02*
D03*
X1040000Y4520000D02*
D03*
X2919600Y731201D02*
D03*
X720294Y4390157D02*
D03*
X4736225Y2308222D02*
D03*
X3733800Y4280000D02*
D03*
X538178Y598941D02*
D03*
X552930Y904130D02*
D03*
X1360390Y810301D02*
D03*
X2339340Y4064380D02*
D03*
X609600Y646529D02*
D03*
X3312398Y2159651D02*
D03*
X3248894Y2161057D02*
D03*
X3076243Y2237400D02*
D03*
X3012743D02*
D03*
X3076243Y2050000D02*
D03*
X3012743D02*
D03*
X3209177Y5052634D02*
D03*
X4006953Y4966894D02*
D03*
X3905983Y5037404D02*
D03*
X4009475Y4850025D02*
D03*
X3916557Y4775666D02*
D03*
X2237841Y2379538D02*
D03*
X2237740Y1838960D02*
D03*
X2788001Y537980D02*
D03*
X2675741Y446440D02*
D03*
X2899261D02*
D03*
X2787228Y994217D02*
D03*
X2681540Y906427D02*
D03*
X2895526Y907589D02*
D03*
X2680069Y1263457D02*
D03*
X2895184Y1263482D02*
D03*
X2787488Y1174789D02*
D03*
X2479121Y596500D02*
D03*
Y406000D02*
D03*
X2316621Y501200D02*
D03*
X2641181D02*
D03*
X2627903Y1209894D02*
D03*
X2331378Y1209089D02*
D03*
X2478624Y1117820D02*
D03*
X2479121Y1303400D02*
D03*
X4172640Y3506559D02*
D03*
X4889081Y3422859D02*
D03*
X4952581D02*
D03*
X4889081Y3610259D02*
D03*
X4952581D02*
D03*
X4663021Y3500499D02*
D03*
X4726521D02*
D03*
X4459821D02*
D03*
X4523321D02*
D03*
X3914339Y3458677D02*
D03*
X3977839D02*
D03*
X3746699D02*
D03*
X3683199D02*
D03*
X4922101Y3124519D02*
D03*
X3212802Y1076863D02*
D03*
X3434712Y2470424D02*
D03*
X3417571Y2586493D02*
D03*
X3583521Y1422990D02*
D03*
Y1594851D02*
D03*
X3519285Y2464060D02*
D03*
X3527811Y2637203D02*
D03*
X3621973Y2845215D02*
D03*
X3504199Y2801584D02*
D03*
X3821061Y1974260D02*
D03*
Y2202282D02*
D03*
X3746112Y2846377D02*
D03*
X3996471Y1968602D02*
D03*
X3979161Y2193700D02*
D03*
X4044401D02*
D03*
X3963071Y2811160D02*
D03*
X4024081D02*
D03*
X3995251Y3032320D02*
D03*
X3931701D02*
D03*
X4487850Y557443D02*
D03*
X3980419Y557533D02*
D03*
X4186781Y1417349D02*
D03*
X4236781Y2815080D02*
D03*
Y3032320D02*
D03*
X4347741Y1417349D02*
D03*
X4428221Y1452269D02*
D03*
X4350567Y1970975D02*
D03*
X4421781D02*
D03*
X4334241Y2193700D02*
D03*
X4408479Y2211833D02*
D03*
X4424321Y2378700D02*
D03*
X4642701Y2238940D02*
D03*
X4531781Y2173700D02*
D03*
X4642701D02*
D03*
X3840420Y1249138D02*
D03*
X5021261Y2189952D02*
D03*
X5059572Y2616331D02*
D03*
X4968401Y2763780D02*
D03*
X5129572Y2429810D02*
D03*
Y2590770D02*
D03*
X3055932Y932372D02*
D03*
X3212477Y787579D02*
D03*
X3581781Y2278700D02*
D03*
X4452020Y266921D02*
D03*
X3795341Y1507350D02*
D03*
X3712632Y1508920D02*
D03*
X3776405Y2083215D02*
D03*
X3801781Y2278700D02*
D03*
X4033440Y1477350D02*
D03*
X4421781Y2280290D02*
D03*
X4443414Y2082061D02*
D03*
X4752294Y2478700D02*
D03*
X5059572Y2696811D02*
D03*
X5129572Y2510290D02*
D03*
X4487533Y331802D02*
D03*
X3927847Y349582D02*
D03*
X4074879Y1865887D02*
D03*
X4060211Y1968602D02*
D03*
X3489292Y2353832D02*
D03*
X3899520Y2811160D02*
D03*
X4085091Y2801160D02*
D03*
X4488420Y1112082D02*
D03*
X4267261Y1417349D02*
D03*
X4508701Y1452269D02*
D03*
X4463001Y1830652D02*
D03*
X4694181Y2387761D02*
D03*
X4675541Y2648700D02*
D03*
X5114811Y2263770D02*
D03*
Y2344250D02*
D03*
X3875821Y1507350D02*
D03*
X3454410Y1508920D02*
D03*
X4113921Y1477350D02*
D03*
X4066567Y3531400D02*
D03*
X4779102Y1248140D02*
D03*
X3606821Y4348460D02*
D03*
X3429340Y4280000D02*
D03*
X3606821Y4168865D02*
D03*
Y4280000D02*
D03*
X3514420Y4168865D02*
D03*
X3412876Y4655706D02*
D03*
X3250809Y4749510D02*
D03*
X3123800Y6418864D02*
D03*
X1506880Y6428864D02*
D03*
X1319080Y6058585D02*
D03*
X1954080D02*
D03*
X1827080D02*
D03*
X1700080D02*
D03*
X1573080D02*
D03*
X1446080D02*
D03*
X230000Y3625859D02*
D03*
X710280Y6060000D02*
D03*
X790280D02*
D03*
Y5819440D02*
D03*
X710280D02*
D03*
X719820Y3792960D02*
D03*
X720440Y4069440D02*
D03*
X800440D02*
D03*
X800280Y4310000D02*
D03*
X604980Y3540000D02*
D03*
X692480Y3662520D02*
D03*
X512700D02*
D03*
X804900Y3897730D02*
D03*
X604980Y3790000D02*
D03*
X719820Y4000000D02*
D03*
X720280Y4310000D02*
D03*
X2555240Y4058920D02*
D03*
X1040000Y4400160D02*
D03*
X3339180Y4148996D02*
D03*
X2645145Y5570000D02*
D03*
Y4427340D02*
D03*
Y4554340D02*
D03*
Y4681340D02*
D03*
Y4808340D02*
D03*
X3833578Y5126073D02*
D03*
X2645145Y5633417D02*
D03*
Y5443340D02*
D03*
Y5321420D02*
D03*
X3547621Y4780980D02*
D03*
X3457268Y4851160D02*
D03*
X3462348Y4965760D02*
D03*
X3552683Y5035760D02*
D03*
X3639809Y5118460D02*
D03*
X3840480Y4348460D02*
D03*
Y4418460D02*
D03*
X3835400Y4620840D02*
D03*
Y4690840D02*
D03*
X3632189Y4631000D02*
D03*
Y4698460D02*
D03*
X2050461Y501200D02*
D03*
X1737781D02*
D03*
Y1208100D02*
D03*
X2050461D02*
D03*
X1893368Y1405990D02*
D03*
X1894121Y713420D02*
D03*
Y294060D02*
D03*
X1640840Y614296D02*
D03*
X2645145Y4935340D02*
D03*
Y5064880D02*
D03*
Y5194420D02*
D03*
X1437640Y341293D02*
D03*
X1305560D02*
D03*
X1257300Y636289D02*
D03*
X1125220D02*
D03*
Y917240D02*
D03*
X1257300D02*
D03*
X609600Y781276D02*
D03*
X1069340Y1070180D02*
D03*
X866140Y1093998D02*
D03*
Y1022878D02*
D03*
Y382900D02*
D03*
Y454020D02*
D03*
%TF.MD5,4c1d63fd31bf3674185422643bc9d053*%
M02*
